<svg viewBox="0 0 285 62" fill="none" xmlns="http://www.w3.org/2000/svg" style="padding: 2rem 1rem 1rem; width: 130px;"><g clip-path="url(#clip0_90_2695)"><path d="M92.0545 50.4409C92.0545 50.7601 92.0478 51.059 92.0342 51.419C91.8168 51.4258 91.6266 51.4258 91.4432 51.4258C90.9745 51.4258 90.5126 51.4258 90.0439 51.4258H89.9148C89.4054 51.4258 88.8959 51.4258 88.3865 51.4258C87.9925 51.4258 87.6053 51.4258 87.2114 51.4258H87.1366C86.8649 51.4258 86.5932 51.4258 86.3283 51.4258C86.3215 51.4258 86.3147 51.4258 86.3079 51.4258C86.3079 51.3307 86.3079 51.2288 86.3079 51.1269L86.3283 47.7306C86.3283 47.6423 86.3283 47.5608 86.3283 47.4725C86.3283 47.323 86.3283 47.1736 86.3283 47.0242C86.3283 47.0174 86.3283 46.997 86.3283 46.963C86.3283 46.7796 86.3283 46.2158 86.3419 46.0256C86.3487 45.8286 86.3487 44.1033 86.3487 43.9742V43.9471C86.3487 43.9267 86.3487 43.8995 86.3487 43.8791C86.3962 43.8791 86.4506 43.8791 86.4913 43.8791C86.5389 43.8791 86.5864 43.8791 86.634 43.8791C86.8038 43.8791 86.9736 43.8791 87.1434 43.8791H87.3472C87.3472 43.8927 87.3472 43.9063 87.3472 43.9199C87.3472 43.9471 87.3472 43.9674 87.3472 43.9946V44.1169C87.354 44.5177 87.3608 44.9116 87.3608 45.3056C87.3608 45.7947 87.354 46.2973 87.3472 46.766V46.8815C87.3404 47.3027 87.3404 47.7374 87.3336 48.1653C87.3336 48.5661 87.3336 48.9329 87.3336 49.3269V49.4695C87.3336 49.6665 87.3336 49.9654 87.3336 50.176V50.4341H87.4151C87.4287 50.4341 88.5359 50.4409 88.9707 50.4409C89.2084 50.4409 89.4462 50.4409 89.6567 50.4409C89.6975 50.4409 89.8129 50.4409 89.9556 50.4477C90.4175 50.4613 91.1851 50.4748 91.4907 50.4477C91.6674 50.4341 91.8576 50.4341 92.041 50.4341L92.0545 50.4409Z" fill="#EDEAE3"/><path d="M103.84 50.6922C103.847 50.7398 103.847 50.7466 103.84 50.7805C103.813 50.9096 103.819 51.0454 103.819 51.1813C103.819 51.2628 103.826 51.3511 103.819 51.4326C103.758 51.4326 103.697 51.4326 103.643 51.4326H103.636C103.568 51.4326 103.5 51.4326 103.419 51.4326C103.14 51.4326 99.4586 51.4326 99.2276 51.4394C98.8812 51.4394 98.4872 51.4462 98.1068 51.4462C98.0796 51.4462 98.0593 51.4462 98.0389 51.4462C98.0389 51.4258 98.0389 51.3987 98.0389 51.3579C98.0389 51.0862 98.0389 50.8077 98.0389 50.536V50.3594C98.0389 50.1488 98.0389 49.8839 98.0389 49.6733C98.0389 49.2725 98.0389 48.8854 98.0389 48.4982V47.2483C98.0389 46.8951 98.0389 46.5419 98.0389 46.1955V45.8286C98.0389 45.5841 98.0389 45.3396 98.0389 45.095C98.0389 44.8505 98.0389 44.6128 98.0389 44.3682V43.8791H98.0457C98.0593 43.8791 98.066 43.8791 98.0796 43.8791C98.3989 43.8791 98.7181 43.8791 99.0442 43.8791H99.2887C99.4518 43.8791 99.6216 43.8791 99.7846 43.8791C100.579 43.8791 102.434 43.8791 103.317 43.8791H103.48C103.643 43.8791 103.765 43.8791 103.84 43.8791C103.84 43.8859 103.84 43.8995 103.84 43.8995C103.799 44.0965 103.813 44.7079 103.799 44.8097C103.568 44.8165 103.31 44.8097 103.113 44.8097C102.739 44.8097 102.373 44.8097 101.999 44.8097H101.157C100.763 44.8097 100.376 44.8097 99.9816 44.8097C99.9272 44.8097 99.7778 44.8097 99.6216 44.8097C99.4586 44.8097 99.2955 44.8097 99.2344 44.8097C99.1868 44.8097 99.1597 44.8301 99.1461 44.8437C99.1053 44.8913 99.1053 44.9456 99.1053 45.0679C99.1053 45.1086 99.1053 45.1562 99.1053 45.2105C99.1053 45.2377 99.1053 45.2716 99.1053 45.3124C99.1053 45.36 99.1053 45.4143 99.1053 45.4618V45.4958C99.1053 45.5569 99.1053 45.6113 99.1053 45.6656V45.7064C99.0985 45.9102 99.0917 46.1275 99.0782 46.3313C99.0646 46.5079 99.1121 46.9494 99.1121 46.9698L99.1189 47.0513H99.2004C99.2072 47.0513 100.145 47.0377 100.219 47.0445C100.45 47.0445 100.688 47.0445 100.912 47.0445H101.055C101.197 47.0445 101.34 47.0445 101.483 47.0445C101.632 47.0445 101.775 47.0445 101.924 47.0445C102.114 47.0445 102.311 47.0445 102.508 47.0445H102.61C102.617 47.1057 102.617 47.1668 102.624 47.2144L102.631 47.2551C102.644 47.3842 102.651 47.4793 102.638 47.6083C102.631 47.6695 102.631 47.7238 102.631 47.7714V47.7849C102.631 47.8053 102.631 47.8257 102.631 47.8461V47.88C102.631 47.914 102.631 47.948 102.624 47.9751C102.461 47.9751 102.291 47.9751 102.128 47.9751H101.075C100.552 47.9751 100.029 47.9751 99.4993 47.9751C99.4585 47.9751 99.411 47.9751 99.3702 47.9819L99.1053 47.9955L99.0917 48.1857C99.0917 48.2129 99.0849 48.2401 99.0849 48.2672C99.0782 48.3148 99.0782 48.3623 99.0782 48.4167C99.0782 48.8378 99.0714 49.2725 99.0714 49.6937V49.8567C99.0714 49.8975 99.0714 49.9314 99.0714 49.979C99.085 50.2099 99.0714 50.3865 99.0714 50.3933L99.0578 50.4884H99.1529C99.8254 50.4952 100.708 50.4952 101.204 50.4952C101.299 50.4952 101.381 50.4884 101.469 50.4816H101.476C101.503 50.4816 101.727 50.4816 101.985 50.4884C102.801 50.502 103.534 50.5088 103.629 50.4952C103.67 50.4884 103.724 50.4884 103.772 50.4884C103.772 50.502 103.779 50.5224 103.779 50.536C103.785 50.5835 103.792 50.6107 103.799 50.665L103.84 50.6922Z" fill="#EDEAE3"/><path d="M117.004 51.4258C116.977 51.4258 116.95 51.4258 116.923 51.4258C116.603 51.4258 116.304 51.4258 116.04 51.419C116.04 51.4054 116.04 51.3987 116.04 51.3851C116.033 51.3104 116.019 51.1337 116.006 51.0522L115.978 50.6379L115.693 50.8824C115.632 50.9096 115.578 50.9368 115.53 50.9639L115.523 50.9707C115.503 50.9843 115.483 50.9979 115.469 51.0047C115.381 51.0454 115.299 51.093 115.224 51.1337C115 51.256 114.79 51.3715 114.525 51.4122C114.477 51.419 114.423 51.4258 114.375 51.4326L114.294 51.4462C114.124 51.4734 113.682 51.5345 113.343 51.5413C112.657 51.5549 111.998 51.3987 111.387 51.0794C110.979 50.8688 110.612 50.5767 110.259 50.1896C110.076 49.9926 109.913 49.7548 109.749 49.4627C109.512 49.028 109.355 48.5389 109.294 48.0091C109.274 47.8189 109.267 47.6083 109.288 47.3706C109.342 46.5894 109.6 45.9441 110.042 45.3803C110.354 44.9796 110.66 44.6943 110.993 44.4769C111.529 44.1373 112.045 43.9267 112.582 43.8452C112.901 43.7976 113.282 43.7433 113.655 43.7433C113.757 43.7433 113.852 43.7501 113.947 43.7569C114.335 43.7908 114.729 43.8791 115.15 44.0286C115.496 44.1576 115.809 44.3546 116.094 44.5448C116.25 44.6535 116.366 44.7554 116.454 44.8709C116.501 44.932 116.556 44.9864 116.603 45.0339C116.563 45.0815 116.515 45.129 116.461 45.1833C116.42 45.2241 116.379 45.2649 116.338 45.3056C116.196 45.4618 116.073 45.5637 115.924 45.7064C115.91 45.72 115.897 45.7336 115.883 45.7471C115.876 45.7403 115.863 45.7268 115.849 45.7132L115.809 45.6656C115.768 45.6181 115.727 45.5773 115.686 45.5298C115.204 45.0611 114.579 44.8301 113.907 44.7486C113.513 44.7011 113.146 44.735 112.711 44.8165C112.147 44.9116 111.543 45.1018 111.169 45.5434C111.135 45.5841 111.094 45.6249 111.054 45.6656L111.027 45.6928C110.796 45.9102 110.653 46.2022 110.497 46.5147C110.381 46.7525 110.327 46.963 110.32 47.2755C110.3 47.4249 110.3 47.5608 110.293 47.6695V47.7102C110.286 48.3216 110.476 48.8446 110.925 49.4016C111.543 50.176 112.297 50.6039 113.125 50.6515C113.805 50.6922 114.273 50.6379 114.681 50.4748C115.136 50.2982 115.537 50.0129 115.863 49.6326C116.073 49.3812 116.073 48.9465 116.073 48.7087V48.6748L116.08 48.5118L115.89 48.505C115.781 48.4846 115.231 48.4914 114.572 48.4982C114.307 48.4982 114.056 48.505 114.015 48.4982C113.812 48.4846 113.608 48.471 113.384 48.4642C113.336 48.4642 113.288 48.4574 113.241 48.4574C113.241 48.1517 113.248 47.8461 113.255 47.554C113.302 47.554 113.356 47.5608 113.404 47.5608C113.574 47.5676 114.552 47.5744 115.34 47.5812C115.727 47.5812 116.053 47.588 116.169 47.588C116.284 47.588 116.393 47.588 116.495 47.588C116.651 47.588 116.821 47.5812 116.984 47.5947C116.984 47.6083 116.984 47.6219 116.984 47.6355C116.984 47.6763 116.977 47.7238 116.984 47.7714C116.99 47.8597 116.997 47.9616 116.984 48.0634C116.977 48.145 116.977 48.5865 116.977 49.0484C116.977 49.1367 116.977 49.191 116.977 49.2046C116.97 49.4492 116.977 49.6937 116.977 49.9314V49.9586C116.977 50.0401 116.977 50.1284 116.984 50.2099C116.984 50.3458 116.977 50.4816 116.977 50.6039C116.97 50.7805 116.963 51.0794 116.99 51.3511C117.011 51.3647 117.004 51.3987 117.004 51.4258Z" fill="#EDEAE3"/><path d="M130.019 51.4258H128.939C128.823 51.0794 128.626 50.5564 128.423 50.1013C128.395 50.0333 128.368 49.9654 128.348 49.8771C128.294 49.7005 128.185 49.5375 128.164 49.5375L127.893 49.5443C127.533 49.5443 127.159 49.5442 126.792 49.5375C126.65 49.5375 126.5 49.5307 126.344 49.5239C126.181 49.5171 126.059 49.5103 125.943 49.5103C125.767 49.5035 125.583 49.5035 125.434 49.5035C125.352 49.5035 124.7 49.5103 124.626 49.5103C124.598 49.5103 124.551 49.6529 124.503 49.7752C124.496 49.7956 124.49 49.8227 124.476 49.8431C124.442 49.9246 124.408 49.9994 124.374 50.0741C124.347 50.1352 124.32 50.1963 124.286 50.2711C124.218 50.4341 124.15 50.5903 124.089 50.7398C124.041 50.862 123.98 51.0047 123.953 51.0794C123.939 51.1134 123.892 51.2424 123.872 51.2832C123.851 51.3307 123.838 51.3715 123.824 51.4054C123.817 51.4122 123.817 51.419 123.817 51.4258C123.81 51.4258 123.797 51.4258 123.783 51.4258C123.668 51.4258 123.498 51.419 123.274 51.419C123.131 51.419 122.968 51.419 122.778 51.419C122.934 51.0183 123.301 50.1556 123.471 49.7548L123.498 49.6937C123.613 49.4288 123.708 49.1978 123.763 49.0688C123.865 48.8174 123.98 48.5593 124.082 48.3284C124.198 48.0634 124.347 47.7306 124.469 47.4113C124.517 47.2959 124.564 47.1872 124.612 47.0785L124.626 47.0445C124.7 46.8815 124.768 46.7253 124.843 46.5623L124.85 46.5419C124.986 46.243 125.128 45.9373 125.257 45.6249C125.373 45.3667 125.481 45.1018 125.59 44.8505L125.631 44.7486C125.692 44.606 125.753 44.4633 125.814 44.3207C125.855 44.2256 126.011 43.8656 126.011 43.8656C126.025 43.8656 126.038 43.8656 126.045 43.8656C126.303 43.8656 126.507 43.8588 126.758 43.8588H126.833C126.894 43.8588 126.928 43.8588 126.949 43.8656C126.955 43.8791 127.044 44.1373 127.044 44.1373C127.125 44.3546 127.214 44.606 127.315 44.8505C127.438 45.1494 127.56 45.4415 127.682 45.7403L127.798 46.012C127.947 46.3789 128.11 46.7592 128.26 47.126C128.375 47.4181 128.497 47.7102 128.606 48.0023L128.626 48.0566C128.735 48.3351 128.851 48.6272 128.966 48.9125C129.095 49.225 129.224 49.5375 129.346 49.816L129.496 50.1624C129.537 50.2507 129.571 50.339 129.611 50.4341C129.659 50.536 129.7 50.6447 129.747 50.7466C129.808 50.8892 129.903 51.1405 129.965 51.2968C129.985 51.3443 130.005 51.3851 130.019 51.4258ZM127.818 48.5797L127.737 48.3623L127.723 48.3284C127.689 48.2468 127.655 48.1721 127.621 48.0906L127.58 47.9887C127.512 47.8257 127.444 47.6559 127.37 47.4861C127.329 47.3842 127.288 47.2823 127.247 47.1804L127.241 47.1736C127.18 47.0038 127.112 46.834 127.037 46.6641C126.996 46.5826 126.989 46.4807 126.955 46.3924L126.949 46.3721C126.874 46.1819 126.582 45.2241 126.568 45.1766L126.5 44.8505L126.371 45.2173C126.364 45.2309 125.998 46.2702 125.936 46.4128C125.814 46.6845 125.699 46.963 125.583 47.2347C125.468 47.4996 125.352 47.7714 125.237 48.0363C125.223 48.0634 125.21 48.0974 125.196 48.1314C125.087 48.3623 124.999 48.5593 124.965 48.702C124.958 48.7291 125.142 48.7155 125.23 48.7155C125.488 48.7155 125.923 48.7223 126.31 48.7223C126.527 48.7223 126.731 48.7223 126.874 48.7223H127.254C127.268 48.7223 127.281 48.7223 127.295 48.7223C127.349 48.7223 127.39 48.7223 127.431 48.7155C127.492 48.7087 127.546 48.7087 127.587 48.7087C127.682 48.7087 127.798 48.7223 127.859 48.7155L127.818 48.5797Z" fill="#EDEAE3"/><path d="M141.729 50.4409C141.729 50.7601 141.723 51.059 141.709 51.419C141.492 51.4258 141.302 51.4258 141.118 51.4258C140.649 51.4258 140.188 51.4258 139.719 51.4258H139.59C139.08 51.4258 138.571 51.4258 138.061 51.4258C137.667 51.4258 137.28 51.4258 136.886 51.4258H136.812C136.54 51.4258 136.268 51.4258 136.003 51.4258C135.996 51.4258 135.99 51.4258 135.983 51.4258C135.983 51.3307 135.983 51.2288 135.983 51.1269L136.003 47.7306C136.003 47.6423 136.003 47.5608 136.003 47.4725C136.003 47.323 136.003 47.1736 136.003 47.0242C136.003 47.0174 136.003 46.997 136.003 46.963C136.003 46.7796 136.003 46.2158 136.017 46.0256C136.024 45.8286 136.024 44.1033 136.024 43.9742V43.9471C136.024 43.9267 136.024 43.8995 136.024 43.8791C136.071 43.8791 136.125 43.8791 136.166 43.8791C136.214 43.8791 136.261 43.8791 136.309 43.8791C136.479 43.8791 136.649 43.8791 136.818 43.8791H137.022C137.022 43.8927 137.022 43.9063 137.022 43.9199C137.022 43.9471 137.022 43.9674 137.022 43.9946V44.1169C137.029 44.5177 137.036 44.9116 137.036 45.3056C137.036 45.7947 137.029 46.2973 137.022 46.766V46.8815C137.015 47.3027 137.015 47.7374 137.009 48.1653C137.009 48.5661 137.009 48.9329 137.009 49.3269V49.4695C137.009 49.6665 137.009 49.9654 137.009 50.176V50.4341H137.09C137.104 50.4341 138.211 50.4409 138.646 50.4409C138.883 50.4409 139.121 50.4409 139.332 50.4409C139.372 50.4409 139.488 50.4409 139.631 50.4477C140.092 50.4613 140.86 50.4748 141.166 50.4477C141.342 50.4341 141.532 50.4341 141.716 50.4341L141.729 50.4409Z" fill="#EDEAE3"/><path d="M160.81 44.803H160.756C160.667 44.803 160.572 44.803 160.47 44.803C160.294 44.803 160.097 44.8029 159.893 44.7962C159.18 44.7894 158.378 44.7826 158.052 44.803L157.733 44.8097L157.74 44.898C157.747 44.9999 157.76 45.1698 157.753 45.2105C157.753 45.3328 157.747 45.4618 157.747 45.5841V45.5977C157.747 45.7403 157.747 45.8898 157.74 46.0392C157.699 47.2279 157.679 48.5661 157.685 49.8975C157.685 50.2914 157.679 50.7466 157.672 51.0862C157.672 51.1949 157.665 51.3171 157.665 51.4326H156.504C156.497 51.3104 156.497 51.2153 156.497 51.1337V50.7669C156.497 50.339 156.497 49.7752 156.51 49.3133L156.517 48.9805C156.531 48.5729 156.544 48.1517 156.544 47.7374C156.544 47.4249 156.551 47.1057 156.558 46.8V46.7525C156.558 46.5555 156.571 44.8913 156.571 44.8777V44.7894H156.483C156.388 44.7894 156.191 44.7894 156.157 44.7894C155.96 44.7826 155.233 44.7894 154.588 44.7962H154.337C154.051 44.7962 153.827 44.8029 153.746 44.7962C153.698 44.7962 153.664 44.7962 153.637 44.7894C153.63 44.606 153.63 44.0829 153.63 43.8791H160.81C160.844 44.0761 160.824 44.6331 160.81 44.803Z" fill="#EDEAE3"/><path d="M172.602 50.6922C172.609 50.7398 172.609 50.7466 172.602 50.7805C172.575 50.9096 172.582 51.0454 172.582 51.1813C172.582 51.2628 172.589 51.3511 172.582 51.4326C172.521 51.4326 172.46 51.4326 172.405 51.4326H172.399C172.331 51.4326 172.263 51.4326 172.181 51.4326C171.903 51.4326 168.221 51.4326 167.99 51.4394C167.644 51.4394 167.25 51.4462 166.869 51.4462C166.842 51.4462 166.822 51.4462 166.801 51.4462C166.801 51.4258 166.801 51.3987 166.801 51.3579C166.801 51.0862 166.801 50.8077 166.801 50.536V50.3594C166.801 50.1488 166.801 49.8839 166.801 49.6733C166.801 49.2725 166.801 48.8854 166.801 48.4982V47.2483C166.801 46.8951 166.801 46.5419 166.801 46.1955V45.8286C166.801 45.5841 166.801 45.3396 166.801 45.095C166.801 44.8505 166.801 44.6128 166.801 44.3682V43.8791H166.808C166.822 43.8791 166.828 43.8791 166.842 43.8791C167.161 43.8791 167.481 43.8791 167.807 43.8791H168.051C168.214 43.8791 168.384 43.8791 168.547 43.8791C169.342 43.8791 171.196 43.8791 172.079 43.8791H172.242C172.405 43.8791 172.528 43.8791 172.602 43.8791C172.602 43.8859 172.602 43.8995 172.602 43.8995C172.562 44.0965 172.575 44.7079 172.562 44.8097C172.331 44.8165 172.072 44.8097 171.875 44.8097C171.502 44.8097 171.135 44.8097 170.761 44.8097H169.919C169.532 44.8097 169.138 44.8097 168.744 44.8097C168.69 44.8097 168.54 44.8097 168.384 44.8097C168.221 44.8097 168.058 44.8097 167.997 44.8097C167.949 44.8097 167.922 44.8301 167.909 44.8437C167.868 44.8913 167.868 44.9456 167.868 45.0679C167.868 45.1086 167.868 45.1562 167.868 45.2105C167.868 45.2377 167.868 45.2716 167.868 45.3124C167.868 45.36 167.868 45.4143 167.868 45.4618V45.4958C167.868 45.5569 167.868 45.6113 167.868 45.6656V45.7064C167.861 45.9102 167.854 46.1275 167.841 46.3313C167.827 46.5079 167.875 46.9494 167.875 46.9698L167.881 47.0513H167.963C167.97 47.0513 168.907 47.0377 168.982 47.0445C169.213 47.0445 169.45 47.0445 169.675 47.0445H169.817C169.96 47.0445 170.103 47.0445 170.245 47.0445C170.395 47.0445 170.537 47.0445 170.687 47.0445C170.877 47.0445 171.074 47.0445 171.271 47.0445H171.373C171.38 47.1057 171.38 47.1668 171.386 47.2144L171.393 47.2551C171.407 47.3842 171.414 47.4793 171.4 47.6083C171.393 47.6695 171.393 47.7238 171.393 47.7714V47.7849C171.393 47.8053 171.393 47.8257 171.393 47.8461V47.88C171.393 47.914 171.393 47.948 171.386 47.9751C171.223 47.9751 171.054 47.9751 170.891 47.9751H169.838C169.315 47.9751 168.792 47.9751 168.262 47.9751C168.221 47.9751 168.173 47.9751 168.133 47.9819L167.868 47.9955L167.854 48.1857C167.854 48.2129 167.847 48.2401 167.847 48.2672C167.841 48.3148 167.841 48.3623 167.841 48.4167C167.841 48.8378 167.834 49.2725 167.834 49.6937V49.8567C167.834 49.8975 167.834 49.9314 167.834 49.979C167.847 50.2099 167.834 50.3865 167.834 50.3933L167.82 50.4884H167.915C168.588 50.4952 169.471 50.4952 169.967 50.4952C170.055 50.4952 170.143 50.4884 170.232 50.4816H170.238C170.266 50.4816 170.49 50.4816 170.748 50.4884C171.563 50.502 172.297 50.5088 172.392 50.4952C172.432 50.4884 172.487 50.4884 172.534 50.4884C172.534 50.502 172.541 50.5224 172.541 50.536C172.548 50.5835 172.555 50.6107 172.562 50.665L172.602 50.6922Z" fill="#EDEAE3"/><path d="M185.257 50.3662C185.209 50.4205 185.155 50.4681 185.101 50.5156L185.094 50.5224C184.537 50.9979 183.932 51.2968 183.253 51.4394C182.839 51.5277 182.411 51.5617 181.99 51.5345C181.643 51.5141 181.277 51.4462 180.794 51.3036C179.769 51.0047 178.974 50.3594 178.451 49.3744C178.247 48.994 178.125 48.6069 178.091 48.2265L178.077 48.0974C178.064 47.9412 178.043 47.6763 178.043 47.4996C178.03 47.0649 178.132 46.6302 178.356 46.0868C178.519 45.6928 178.763 45.326 179.082 44.9999C179.361 44.7146 179.673 44.4701 180.006 44.2867C180.4 44.0693 180.747 43.9403 181.093 43.8791C181.351 43.8384 181.623 43.7908 181.881 43.7705C181.983 43.7637 182.092 43.7569 182.194 43.7569C182.526 43.7569 182.873 43.7976 183.212 43.8791C183.552 43.9607 183.912 44.0829 184.265 44.2459C184.768 44.4769 185.189 44.8029 185.522 45.2241C185.264 45.4415 185.006 45.652 184.748 45.8626C184.727 45.8422 184.707 45.8218 184.686 45.7947L184.68 45.7879C184.652 45.7607 184.632 45.7335 184.605 45.7064C184.177 45.2309 183.606 44.932 182.92 44.8097C182.655 44.7622 182.391 44.735 182.132 44.735C181.297 44.7214 180.563 44.9796 179.945 45.5026C179.714 45.6996 179.524 45.9305 179.381 46.1954C179.13 46.6438 179.008 47.0921 179.015 47.5404C179.021 48.0974 179.157 48.6884 179.422 49.1163C179.775 49.6869 180.271 50.0877 180.93 50.3322C181.406 50.5088 181.861 50.5903 182.309 50.5767C183.083 50.5564 183.722 50.3458 184.265 49.9314C184.354 49.8635 184.428 49.7956 184.503 49.7209C184.53 49.7005 184.551 49.6733 184.578 49.6529C184.646 49.7209 184.714 49.7888 184.782 49.8567L184.809 49.8839C184.958 50.0333 185.121 50.1963 185.257 50.3662Z" fill="#EDEAE3"/><path d="M198.442 44.3546C198.414 44.4633 198.414 44.5856 198.435 44.7214C198.442 44.769 198.435 45.129 198.435 45.4143C198.428 45.7607 198.421 46.08 198.435 46.1887V46.2362C198.455 46.5147 198.435 46.8068 198.414 47.0581V47.0649C198.401 47.2415 198.401 47.4113 198.401 47.5812V47.5947C198.401 47.6151 198.401 47.6898 198.401 47.7917C198.401 48.0023 198.408 48.3148 198.408 48.4167C198.408 48.8378 198.401 50.1828 198.394 50.2982C198.387 50.4205 198.394 50.5699 198.394 50.6854V50.7058C198.394 50.8416 198.401 50.9843 198.387 51.1201C198.381 51.2085 198.381 51.3171 198.387 51.419V51.4258C198.326 51.4258 198.17 51.4258 197.993 51.4258H197.953C197.715 51.4258 197.484 51.4258 197.355 51.4258C197.362 51.0862 197.375 48.797 197.375 48.5797C197.375 48.4914 197.375 48.0974 197.375 48.0974V47.9955L197.144 47.9887C196.832 47.9615 192.817 47.9751 192.736 47.9819H192.654L192.647 48.1789C192.627 48.3148 192.627 48.6272 192.627 48.8446V48.8854C192.627 48.9057 192.627 48.9533 192.627 49.0144C192.627 49.3065 192.627 50.0809 192.62 50.2167C192.614 50.3662 192.614 50.536 192.614 50.6718V50.6854C192.614 50.7601 192.62 50.8416 192.614 50.9164C192.614 51.0522 192.614 51.1881 192.607 51.3375V51.3579C192.607 51.3715 192.607 51.3986 192.607 51.419C192.389 51.419 191.805 51.419 191.567 51.419C191.567 51.3103 191.574 51.1881 191.574 51.0726V51.0454C191.581 50.8009 191.588 50.5088 191.574 50.2507C191.574 50.1692 191.574 50.0809 191.581 49.9926V49.9858C191.588 49.8771 191.588 49.619 191.581 49.4627C191.581 49.4084 191.581 49.3744 191.581 49.3608C191.581 49.354 191.588 49.3405 191.588 49.3337C191.595 49.3065 191.595 49.2589 191.588 48.6544C191.581 48.1721 191.581 47.5676 191.588 47.3978C191.601 47.1668 191.649 44.409 191.601 43.8927H191.744C192.05 43.8927 192.349 43.8927 192.654 43.8927C192.661 44.0829 192.661 44.2799 192.654 44.4701V44.4837C192.654 44.5652 192.647 44.6467 192.647 44.7282C192.647 44.9184 192.647 45.4007 192.647 45.6384V47.0242L192.729 47.0309C192.749 47.0309 194.556 47.0513 195.086 47.0513C195.276 47.0513 195.466 47.0513 195.65 47.0581H195.738C195.989 47.0649 196.248 47.0717 196.506 47.0649C196.642 47.0649 196.777 47.0649 196.913 47.0581H197.362V46.963C197.362 46.7524 197.362 46.4332 197.362 46.4128C197.368 46.0732 197.362 45.7675 197.362 45.4415V45.2173C197.362 45.0814 197.362 44.9456 197.362 44.8165C197.362 44.5924 197.362 44.3614 197.368 44.1441V44.0014C197.368 43.9607 197.368 43.9267 197.375 43.8859C197.484 43.8859 197.694 43.8859 197.912 43.8859H197.946C198.116 43.8859 198.292 43.8859 198.435 43.8859C198.435 43.9471 198.435 44.0014 198.442 44.0693C198.455 44.1712 198.462 44.2731 198.442 44.3546Z" fill="#EDEAE3"/><path d="M158.059 56.3505H157.38V61.1869H158.059V56.3505Z" fill="#EDEAE3"/><path d="M161.938 56.3505H161.258V61.1869H161.938V56.3505Z" fill="#EDEAE3"/><path d="M128.001 56.6155V56.7106C128.001 57.4578 128.001 58.2118 127.995 58.959C127.995 59.1968 127.995 59.4345 127.995 59.6722V59.9236C127.995 60.1409 127.995 60.3515 127.995 60.5621C127.995 60.664 127.995 60.7862 127.995 60.8813V60.9357C127.995 60.99 127.995 61.0444 127.995 61.0987C127.995 61.1259 127.995 61.153 127.995 61.1802H127.329V60.9696C127.329 60.6911 127.329 60.3991 127.329 60.1274C127.329 60.0187 127.329 59.9168 127.329 59.8081V59.7266C127.329 59.4888 127.336 59.2239 127.329 58.9658C127.329 58.8232 127.329 58.6805 127.329 58.5447C127.329 58.3001 127.336 58.0556 127.315 57.7907L127.322 57.2269L127.22 57.3763C127.214 57.3899 126.392 58.599 126.296 58.7349C126.249 58.796 126.208 58.8571 126.161 58.925L126.133 58.9658C126.106 59.0066 126.072 59.0473 126.045 59.0949C126.025 59.122 126.004 59.156 125.984 59.1832L125.95 59.2307C125.903 59.2986 125.855 59.3598 125.807 59.4277C125.767 59.4888 125.719 59.55 125.678 59.6111L125.658 59.6383C125.624 59.6858 125.597 59.7334 125.563 59.7809C125.522 59.8353 125.481 59.8964 125.441 59.9507L125.42 59.9847C125.379 59.9304 125.346 59.876 125.312 59.8149V59.8081C125.271 59.747 125.23 59.679 125.189 59.6179C125.108 59.5092 125.033 59.3937 124.952 59.2783C124.918 59.2307 124.884 59.1764 124.85 59.1288L124.768 59.0134C124.687 58.8911 124.592 58.7552 124.503 58.6194C124.469 58.565 124.435 58.5107 124.401 58.4631L124.388 58.4428C124.327 58.3477 124.252 58.2254 124.17 58.1167C124.13 58.0624 124.089 58.0012 124.048 57.9333C123.98 57.8178 123.905 57.7024 123.804 57.5937L123.518 57.1997V57.3695C123.518 57.3831 123.511 58.436 123.511 58.5514V58.8707C123.511 59.0677 123.505 59.2715 123.511 59.4753C123.511 59.6247 123.511 59.7741 123.518 59.9168V59.9575C123.518 60.1341 123.525 60.3311 123.525 60.5213C123.525 60.7183 123.518 60.9561 123.511 61.1598V61.1734H122.853C122.853 61.0987 122.859 61.0172 122.859 60.9357C122.859 60.8881 122.866 60.827 122.866 60.7794C122.866 60.7591 122.866 60.7387 122.866 60.7183V60.6844C122.873 60.596 122.873 59.4685 122.873 59.4209V59.3394C122.873 59.122 122.873 58.8979 122.873 58.6805C122.873 58.6058 122.873 58.5243 122.873 58.4496V58.4156C122.873 58.3477 122.873 58.2797 122.873 58.2118V57.8043C122.88 57.3016 122.88 56.8533 122.88 56.3982V56.3438H123.702C123.817 56.5001 123.926 56.6631 124.035 56.8193C124.082 56.8872 124.13 56.9552 124.177 57.0231L124.245 57.1182C124.422 57.3695 124.625 57.6548 124.816 57.9333C124.897 58.0488 124.972 58.1643 125.04 58.2729C125.067 58.3205 125.407 58.8164 125.42 58.8367L125.468 58.9047L125.515 58.8367C125.529 58.8164 126.752 57.0706 126.881 56.8737L126.928 56.7989C127.003 56.6903 127.105 56.534 127.173 56.4389C127.193 56.405 127.22 56.371 127.247 56.3438H128.015C128.001 56.4389 128.001 56.5272 128.001 56.6155Z" fill="#EDEAE3"/><path d="M137.355 56.6154V56.7105C137.355 57.4577 137.355 58.2117 137.348 58.9589C137.348 59.1967 137.348 59.4344 137.348 59.6721V59.9235C137.348 60.1408 137.348 60.3514 137.348 60.562C137.348 60.6639 137.348 60.7861 137.348 60.8812V60.9356C137.348 60.9899 137.348 61.0443 137.348 61.0986C137.348 61.1258 137.348 61.153 137.348 61.1801H136.682V60.9696C136.682 60.6911 136.682 60.399 136.682 60.1273C136.682 60.0186 136.682 59.9167 136.682 59.808V59.7265C136.682 59.4887 136.689 59.2238 136.682 58.9657C136.682 58.8231 136.682 58.6804 136.682 58.5446C136.682 58.3 136.689 58.0555 136.669 57.7906L136.676 57.2268L136.574 57.3762C136.567 57.3898 135.745 58.5989 135.65 58.7348C135.602 58.7959 135.562 58.857 135.514 58.925L135.487 58.9657C135.46 59.0065 135.426 59.0472 135.399 59.0948C135.378 59.1219 135.358 59.1559 135.338 59.1831L135.304 59.2306C135.256 59.2985 135.208 59.3597 135.161 59.4276C135.12 59.4887 135.073 59.5499 135.032 59.611L135.011 59.6382C134.978 59.6857 134.95 59.7333 134.916 59.7808C134.876 59.8352 134.835 59.8963 134.794 59.9506L134.774 59.9846C134.733 59.9303 134.699 59.8759 134.665 59.8148V59.808C134.624 59.7469 134.584 59.6789 134.543 59.6178C134.461 59.5091 134.387 59.3936 134.305 59.2782C134.271 59.2306 134.237 59.1763 134.203 59.1287L134.122 59.0133C134.04 58.891 133.945 58.7551 133.857 58.6193C133.823 58.5649 133.789 58.5106 133.755 58.463L133.741 58.4427C133.68 58.3476 133.605 58.2253 133.524 58.1166C133.483 58.0623 133.442 58.0011 133.402 57.9332C133.334 57.8177 133.259 57.7023 133.157 57.5936L132.872 57.1996V57.3694C132.872 57.383 132.865 58.4359 132.865 58.5514V58.8706C132.865 59.0676 132.858 59.2714 132.865 59.4752C132.865 59.6246 132.865 59.774 132.872 59.9167V59.9574C132.872 60.134 132.879 60.331 132.879 60.5212C132.879 60.7182 132.872 60.956 132.865 61.1597V61.1733H132.206C132.206 61.0986 132.213 61.0171 132.213 60.9356C132.213 60.888 132.22 60.8269 132.22 60.7794C132.22 60.759 132.22 60.7386 132.22 60.7182V60.6843C132.226 60.596 132.226 59.4684 132.226 59.4208V59.3393C132.226 59.1219 132.226 58.8978 132.226 58.6804C132.226 58.6057 132.226 58.5242 132.226 58.4495V58.4155C132.226 58.3476 132.226 58.2796 132.226 58.2117V57.8042C132.233 57.3015 132.233 56.8532 132.233 56.3981V56.3437H133.055C133.171 56.5 133.279 56.663 133.388 56.8192C133.436 56.8871 133.483 56.9551 133.531 57.023L133.599 57.1181C133.775 57.3694 133.979 57.6547 134.169 57.9332C134.251 58.0487 134.325 58.1642 134.393 58.2729C134.421 58.3204 134.76 58.8163 134.774 58.8366L134.821 58.9046L134.869 58.8366C134.882 58.8163 136.105 57.0705 136.234 56.8736L136.282 56.7988C136.356 56.6902 136.458 56.5339 136.526 56.4388C136.547 56.4049 136.574 56.3709 136.601 56.3437H137.369C137.355 56.4388 137.355 56.5271 137.355 56.6154Z" fill="#EDEAE3"/><path d="M145.683 61.1869H144.915L144.589 60.7318C144.494 60.5959 144.399 60.4669 144.304 60.331C144.236 60.2359 144.168 60.1408 144.093 60.0322C143.951 59.8284 143.543 59.2985 143.523 59.2714L143.475 59.2102L143.434 59.2714C143.428 59.2782 142.911 60.0186 142.714 60.2903C142.606 60.4397 142.497 60.5824 142.388 60.7318L142.361 60.7658C142.293 60.8541 142.205 60.9763 142.137 61.0646C142.11 61.1054 142.076 61.1462 142.049 61.1801H141.172C141.281 61.0443 141.41 60.8745 141.512 60.7386C141.689 60.5076 141.872 60.2699 142.049 60.039L142.348 59.645L142.456 59.5023C142.579 59.3461 142.748 59.1219 142.898 58.925L143.095 58.6668L143.074 58.6329C143.074 58.6329 143.04 58.5785 142.979 58.4902C142.905 58.3815 142.823 58.2661 142.748 58.1642L142.701 58.103C142.64 58.0147 142.579 57.9264 142.511 57.8381C142.402 57.6819 142.286 57.5257 142.171 57.3626C142.076 57.2268 141.974 57.0841 141.879 56.9483L141.845 56.8939C141.757 56.7717 141.668 56.6426 141.58 56.5203C141.546 56.4728 141.499 56.4049 141.458 56.3437L141.451 56.3369H142.273C142.443 56.5815 142.667 56.9075 142.843 57.1589C142.966 57.3287 143.455 58.0827 143.462 58.0894L143.502 58.1506L143.55 58.0962C143.597 58.0351 143.903 57.6072 144.202 57.1996C144.399 56.9279 144.582 56.663 144.644 56.5815L144.671 56.5475C144.691 56.5203 144.766 56.4184 144.813 56.3437H145.635L145.601 56.3845C145.35 56.7173 145.085 57.0705 144.868 57.3762C144.752 57.5324 144.637 57.6955 144.521 57.8449L144.514 57.8585C144.467 57.9196 144.419 57.9808 144.379 58.0419C144.256 58.1981 144.148 58.3408 144.032 58.5174L143.93 58.6329L143.951 58.6668C143.957 58.6804 144.134 58.9657 144.229 59.1016L144.256 59.1423C145.031 60.2156 145.241 60.5144 145.275 60.5688C145.309 60.6163 145.37 60.7114 145.438 60.8201C145.52 60.9424 145.628 61.0986 145.656 61.1462L145.683 61.1869Z" fill="#EDEAE3"/><path d="M153.644 61.1869H152.876L152.55 60.7318C152.455 60.5959 152.36 60.4669 152.265 60.331C152.197 60.2359 152.129 60.1408 152.054 60.0322C151.912 59.8284 151.504 59.2985 151.484 59.2714L151.436 59.2102L151.396 59.2714C151.389 59.2782 150.872 60.0186 150.675 60.2903C150.567 60.4397 150.458 60.5824 150.349 60.7318L150.322 60.7658C150.254 60.8541 150.166 60.9763 150.098 61.0646C150.071 61.1054 150.037 61.1462 150.01 61.1801H149.134C149.242 61.0443 149.371 60.8745 149.473 60.7386C149.65 60.5076 149.833 60.2699 150.01 60.039L150.309 59.645L150.417 59.5023C150.54 59.3461 150.709 59.1219 150.859 58.925L151.056 58.6668L151.036 58.6329C151.036 58.6329 151.002 58.5785 150.94 58.4902C150.866 58.3815 150.784 58.2661 150.709 58.1642L150.662 58.103C150.601 58.0147 150.533 57.9264 150.472 57.8381C150.363 57.6819 150.248 57.5257 150.132 57.3626C150.037 57.2268 149.935 57.0841 149.84 56.9483L149.806 56.8939C149.718 56.7717 149.629 56.6426 149.541 56.5203C149.507 56.4728 149.46 56.4049 149.419 56.3437L149.412 56.3369H150.234C150.404 56.5815 150.628 56.9075 150.805 57.1589C150.927 57.3287 151.416 58.0827 151.423 58.0894L151.463 58.1506L151.511 58.0962C151.559 58.0351 151.864 57.6072 152.163 57.1996C152.36 56.9279 152.543 56.663 152.605 56.5815L152.632 56.5475C152.652 56.5203 152.727 56.4184 152.774 56.3437H153.596L153.562 56.3845C153.311 56.7173 153.046 57.0705 152.829 57.3762C152.713 57.5324 152.598 57.6955 152.482 57.8449L152.476 57.8585C152.428 57.9196 152.38 57.9808 152.34 58.0419C152.217 58.1981 152.109 58.3408 151.993 58.5174L151.891 58.6329L151.912 58.6668C151.919 58.6804 152.095 58.9657 152.19 59.1016L152.217 59.1423C152.992 60.2156 153.202 60.5144 153.243 60.5688C153.277 60.6163 153.338 60.7114 153.406 60.8201C153.488 60.9424 153.596 61.0986 153.624 61.1462L153.644 61.1869Z" fill="#EDEAE3"/><path d="M25.6831 10.0855C25.6831 15.9136 22.2732 19.636 14.8352 19.636H4.79562V32.1889H0.264893V0.806692H14.8352C22.0558 0.806692 25.6831 4.08077 25.6831 10.0855ZM21.0234 10.0855C21.0234 6.41066 18.9584 4.75325 14.8828 4.75325H4.79562V15.6487H14.8828C19.0535 15.6487 21.0234 13.8079 21.0234 10.0855Z" fill="#EDEAE3"/><path d="M5.06055 32.4606H0V0.541771H14.8352C22.1102 0.541771 25.9481 3.84302 25.9481 10.0855C25.9481 16.4163 22.0015 19.9009 14.8352 19.9009H5.06055V32.4606ZM0.52983 31.924H4.52393V19.3711H14.8352C21.757 19.3711 25.4182 16.1582 25.4182 10.0855C25.4182 4.10114 21.8589 1.0716 14.8352 1.0716H0.52983V31.924ZM14.8828 15.9136H4.53073V4.48832H14.8828C19.1961 4.48832 21.2883 6.32235 21.2883 10.0923C21.2883 14.0117 19.1961 15.9136 14.8828 15.9136ZM5.06055 15.3838H14.8828C18.8905 15.3838 20.7585 13.6992 20.7585 10.0923C20.7585 6.63481 18.8905 5.02495 14.8828 5.02495H5.06055V15.3838Z" fill="#EDEAE3"/><path d="M46.265 0.806692H52.589L66.2627 32.1889H61.5554L57.9213 23.9834H40.926L37.2919 32.1889H32.5845L46.265 0.806692ZM56.3522 19.9553L51.2441 8.74735L49.4915 4.30493H49.3149L47.5692 8.74055L42.5019 19.9485H56.3522V19.9553Z" fill="#EDEAE3"/><path d="M66.6635 32.4606H61.3788L57.7447 24.2551H41.1026L37.4685 32.4606H32.1838L46.0884 0.541771H52.7588L66.6635 32.4606ZM61.7252 31.924H65.8551L52.4124 1.0716H46.4416L32.9989 31.924H37.1289L40.7562 23.7184H58.0911L61.7252 31.924ZM56.7665 20.2202H42.0875L47.3247 8.63866L49.1383 4.0468H49.6817L51.4954 8.65224L56.7665 20.2202ZM42.9094 19.6836H55.9378L50.9995 8.85602L49.4032 4.80758L47.8138 8.84244L42.9094 19.6836Z" fill="#EDEAE3"/><path d="M100.111 4.8891H93.1142L88.4068 4.80079V32.1957H83.8761V4.80079L78.7205 4.8891H72.2198V0.806692H100.104V4.8891H100.111Z" fill="#EDEAE3"/><path d="M88.6718 32.4606H83.6112V5.0657L78.7273 5.15401H71.955V0.541771H100.376V5.15401H93.1142L88.6718 5.0725V32.4606ZM84.141 31.924H88.1351V4.52908L93.1142 4.62418H99.8389V1.0716H72.4848V4.61739H78.7205L84.141 4.52229V31.924Z" fill="#EDEAE3"/><path d="M128.443 18.5628H119.069V32.1889H114.538V0.806692H130.542C137.178 0.806692 140.901 3.94492 140.901 9.63719C140.901 14.7045 137.987 17.8835 132.607 17.8835V18.0194L141.75 32.1889H137.219L128.443 18.5628ZM119.069 14.7045H130.053C134.264 14.7045 136.193 13.312 136.193 9.68474C136.193 6.14575 134.224 4.75325 130.053 4.75325H119.069V14.7045Z" fill="#EDEAE3"/><path d="M142.246 32.4606H137.083L128.294 18.8345H119.334V32.4606H114.273V0.541771H130.542C137.389 0.541771 141.166 3.77509 141.166 9.63718C141.166 14.8336 138.123 17.9922 133.001 18.1484L142.246 32.4606ZM137.375 31.924H141.268L132.342 18.1009V17.6254H132.607C137.708 17.6254 140.636 14.7181 140.636 9.64398C140.636 4.12152 137.049 1.07839 130.542 1.07839H114.803V31.9308H118.797V18.2979H128.579L137.375 31.924ZM130.053 14.9694H118.804V4.48832H130.053C134.482 4.48832 136.458 6.0914 136.458 9.68473C136.465 13.3935 134.55 14.9694 130.053 14.9694ZM119.334 14.4396H130.053C134.224 14.4396 135.929 13.0607 135.929 9.68473C135.929 6.41745 134.169 5.01815 130.053 5.01815H119.334V14.4396Z" fill="#EDEAE3"/><path d="M153.454 16.5454C153.454 6.1865 160.45 0.358372 171.251 0.358372C182.187 0.358372 189.047 6.23405 189.047 16.5454C189.047 26.8567 182.051 32.6372 171.251 32.6372C160.362 32.6372 153.454 26.7208 153.454 16.5454ZM184.347 16.4978C184.347 7.93222 179.952 4.52908 171.257 4.52908C162.515 4.52908 158.168 7.97977 158.168 16.4978C158.168 25.1517 162.603 28.4665 171.257 28.4665C180 28.4733 184.347 24.6151 184.347 16.4978Z" fill="#EDEAE3"/><path d="M171.257 32.9089C160.117 32.9089 153.196 26.6393 153.196 16.5453C153.189 6.24084 159.941 0.0934505 171.257 0.0934505C182.574 0.0934505 189.319 6.24084 189.319 16.5453C189.319 26.7887 182.567 32.9089 171.257 32.9089ZM171.257 0.62328C160.28 0.62328 153.725 6.57368 153.725 16.5453C153.725 26.4559 160.28 32.3723 171.257 32.3723C182.234 32.3723 188.789 26.4559 188.789 16.5453C188.789 6.57368 182.234 0.62328 171.257 0.62328ZM171.257 28.7382C162.019 28.7382 157.903 24.9615 157.903 16.5046C157.903 8.0409 162.019 4.27096 171.257 4.27096C180.495 4.27096 184.612 8.04769 184.612 16.5046C184.612 24.7305 180.244 28.7382 171.257 28.7382ZM171.257 4.79399C162.386 4.79399 158.433 8.40091 158.433 16.4978C158.433 24.5947 162.386 28.2016 171.257 28.2016C179.891 28.2016 184.082 24.3705 184.082 16.4978C184.082 8.4077 180.129 4.79399 171.257 4.79399Z" fill="#EDEAE3"/><path d="M203.713 0.806692H209.629L224.736 19.9077L229.668 26.0483H229.803L229.756 19.9485V0.806692H234.287V32.1889H228.594L212.903 12.1912L208.332 6.49897H208.196L208.244 12.1912V32.1889H203.713V0.806692Z" fill="#EDEAE3"/><path d="M234.558 32.4606H228.472L212.7 12.3611L208.474 7.09672L208.515 12.1912V32.4538H203.455V0.541771H209.765L209.847 0.643661L224.954 19.7447L229.539 25.4574L229.498 19.9553V0.541771H234.558V32.4606ZM228.723 31.924H234.022V1.0716H230.028V19.9485L230.075 26.3132H229.545L224.532 20.0708L209.5 1.0716H203.978V31.924H207.972V12.198L207.924 6.24084H208.454L213.107 12.035L228.723 31.924Z" fill="#EDEAE3"/><path d="M248.905 16.5454C248.905 6.1865 255.901 0.358372 266.701 0.358372C277.638 0.358372 284.498 6.23405 284.498 16.5454C284.498 26.8567 277.502 32.6372 266.701 32.6372C255.806 32.6372 248.905 26.7208 248.905 16.5454ZM279.791 16.4978C279.791 7.93222 275.396 4.52908 266.701 4.52908C257.959 4.52908 253.612 7.97977 253.612 16.4978C253.612 25.1517 258.048 28.4665 266.701 28.4665C275.444 28.4733 279.791 24.6151 279.791 16.4978Z" fill="#EDEAE3"/><path d="M266.701 32.9089C255.561 32.9089 248.64 26.6393 248.64 16.5453C248.64 6.24084 255.392 0.0934505 266.701 0.0934505C278.011 0.0934505 284.763 6.24084 284.763 16.5453C284.77 26.7887 278.011 32.9089 266.701 32.9089ZM266.701 0.62328C255.724 0.62328 249.169 6.57368 249.169 16.5453C249.169 26.4559 255.724 32.3723 266.701 32.3723C277.678 32.3723 284.233 26.4559 284.233 16.5453C284.233 6.57368 277.678 0.62328 266.701 0.62328ZM266.701 28.7382C257.463 28.7382 253.347 24.9615 253.347 16.5046C253.347 8.0409 257.463 4.27096 266.701 4.27096C275.939 4.27096 280.056 8.04769 280.056 16.5046C280.063 24.7305 275.688 28.7382 266.701 28.7382ZM266.701 4.79399C257.83 4.79399 253.877 8.40091 253.877 16.4978C253.877 24.5947 257.83 28.2016 266.701 28.2016C275.335 28.2016 279.526 24.3705 279.526 16.4978C279.526 8.4077 275.573 4.79399 266.701 4.79399Z" fill="#EDEAE3"/></g><defs><clipPath id="clip0_90_2695"><rect width="284.77" height="61.0935" fill="white" transform="translate(0 0.0934601)"/></clipPath></defs></svg>