<svg width="67" height="37" viewBox="0 0 67 37" fill="none" xmlns="http://www.w3.org/2000/svg">
  <g clip-path="url(#clip0_1_38)">
    <path
      d="M32.65 19.7702L33.44 16.9702C33.33 16.9702 33.19 16.8502 33.05 16.8002C32.1949 16.4688 31.4524 15.8997 30.91 15.1602C30.6058 14.7788 30.1896 14.5025 29.72 14.3702C28.8253 14.0557 28.0754 13.4266 27.61 12.6002L27.53 12.4702C27.4331 12.103 27.1978 11.7875 26.8734 11.5899C26.5491 11.3923 26.1608 11.3279 25.79 11.4102C25.7853 11.325 25.8016 11.2398 25.8376 11.1624C25.8735 11.0849 25.928 11.0175 25.9962 10.9661C26.0644 10.9147 26.1443 10.8809 26.2286 10.8677C26.313 10.8544 26.3993 10.8622 26.48 10.8902C27.4001 11.0988 28.3373 11.2226 29.28 11.2602C29.85 11.3702 30.42 11.4202 30.99 11.5402C31.78 11.7102 32.58 11.8902 33.36 12.1402C34.14 12.3902 34.67 12.6802 35.36 12.9602C35.4881 13.0407 35.6308 13.095 35.78 13.1202C35.57 12.7502 35.38 12.3702 35.15 12.0002C34.5508 11.1094 34.2051 10.0724 34.15 9.00023C34.15 7.41023 34.04 5.83023 33.98 4.25023C33.9773 3.46663 34.1661 2.69424 34.53 2.00023C34.78 1.49023 34.97 1.00023 35.19 0.440234L35.39 -0.00976562C35.4336 0.174078 35.4905 0.354544 35.56 0.530234C35.88 1.22023 36.17 1.93023 36.56 2.58023C37.0646 3.27955 37.2828 4.14529 37.17 5.00023C37.1499 5.63998 37.3552 6.26647 37.75 6.77023C37.8468 6.92582 37.9114 7.09924 37.94 7.28023C38.1045 8.91558 38.3549 10.5412 38.69 12.1502C38.81 12.8802 38.89 13.6102 38.97 14.3502C38.9598 14.5267 39.0043 14.702 39.0973 14.8524C39.1904 15.0027 39.3275 15.1206 39.49 15.1902C40.7362 15.857 41.8455 16.7526 42.76 17.8302C43.1343 18.2011 43.5282 18.5516 43.94 18.8802C44.0981 18.9921 44.2792 19.0673 44.47 19.1002C44.6605 19.1611 44.8666 19.1511 45.0503 19.0721C45.2341 18.9931 45.3831 18.8504 45.47 18.6702C45.7212 18.3177 46.0368 18.0157 46.4 17.7802C46.4843 17.7078 46.5834 17.6547 46.6904 17.6247C46.7974 17.5947 46.9097 17.5886 47.0194 17.6067C47.129 17.6248 47.2334 17.6667 47.325 17.7296C47.4167 17.7924 47.4935 17.8745 47.55 17.9702C47.92 18.4502 48.27 18.9702 48.63 19.4202C48.7057 19.505 48.808 19.5614 48.92 19.5802C49.51 19.6402 50.1 19.6902 50.69 19.7102C50.82 19.7102 50.95 19.5902 51.11 19.5002C49.6354 17.4377 48.2991 15.2796 47.11 13.0402C46.9614 12.7605 46.7908 12.493 46.6 12.2402C45.781 11.0894 45.1717 9.80297 44.8 8.44023C44.5572 7.75706 44.2734 7.08917 43.95 6.44023C43.4778 5.35349 43.407 4.13438 43.75 3.00023C43.8187 2.8457 43.9024 2.69832 44 2.56023C44.08 2.62023 44.13 2.64023 44.14 2.67023C44.5381 3.95331 45.3461 5.0704 46.44 5.85023C47.6779 6.96609 48.6369 8.35663 49.24 9.91023C49.52 10.5302 49.79 11.1602 50.05 11.8002C50.6823 13.436 51.0796 15.153 51.23 16.9002C51.23 17.2302 51.17 17.5802 51.23 17.9002C51.285 18.4655 51.5379 18.9933 51.9441 19.3903C52.3502 19.7873 52.8836 20.0281 53.45 20.0702L58.58 20.9702C58.852 21.0078 59.128 21.0078 59.4 20.9702C59.19 20.7102 58.97 20.4702 58.79 20.2002C58.5594 19.8934 58.3711 19.5571 58.23 19.2002C57.96 18.3602 57.75 17.5002 57.52 16.6602C57.52 16.6602 57.52 16.5802 57.52 16.5402C57.25 15.6302 57.37 15.3102 58.21 14.9002C58.4759 14.7393 58.7724 14.6357 59.0807 14.5961C59.3889 14.5565 59.7021 14.5817 60 14.6702C60.3786 14.7915 60.7096 15.0285 60.9464 15.3479C61.1832 15.6672 61.3139 16.0527 61.32 16.4502C61.3935 17.5109 61.1683 18.571 60.67 19.5102C60.17 20.6202 60.77 21.3202 61.78 21.5802C62.23 21.7102 62.68 21.8702 63.13 22.0002L65.07 22.5402C65.6 22.6902 66.07 22.8902 66.18 23.5402C66.18 23.6702 66.24 23.8802 66.18 23.9402C66.1166 23.98 66.0455 24.0059 65.9714 24.0163C65.8973 24.0266 65.8218 24.0212 65.75 24.0002C64.75 23.6702 63.75 23.3502 62.81 23.0002C61.9156 22.6493 60.9605 22.4793 60 22.5002C59.5604 22.5758 59.1609 22.8021 58.87 23.1402C58.46 23.5202 58.17 24.0302 57.79 24.4502C57.06 25.2402 56.29 26.0102 55.55 26.7902C55.36 26.9902 55.21 27.2202 55.03 27.4402C54.3675 28.2479 53.5107 28.8741 52.54 29.2602C51.7504 29.6091 51.0622 30.1528 50.54 30.8402C49.9779 31.477 49.2745 31.9732 48.4861 32.2893C47.6977 32.6053 46.8463 32.7323 46 32.6602C45.3849 32.6654 44.7706 32.7054 44.16 32.7802L43.7 32.8802C44.0205 32.2954 44.464 31.787 45 31.3902C46.7 30.0802 48.42 28.7902 50.11 27.4702C50.6737 27.0216 51.2019 26.5302 51.69 26.0002C52.9167 24.758 54.4216 23.8257 56.08 23.2802C56.2309 23.2272 56.3779 23.1637 56.52 23.0902C57.1426 22.6454 57.8766 22.3823 58.64 22.3302C58.7735 22.3181 58.8979 22.2577 58.99 22.1602C58.4 21.9902 57.81 21.7802 57.21 21.6702C55.94 21.4402 54.67 21.2302 53.39 21.0602C53.0932 21.0715 52.8013 21.1394 52.53 21.2602C52.42 21.2602 52.31 21.3902 52.2 21.3902C51.67 21.3902 51.43 21.7602 51.2 22.1602C50.61 23.2402 50.04 24.3302 49.4 25.3702C49.1107 25.8229 48.7453 26.2221 48.32 26.5502C47.68 27.0702 46.98 27.4902 46.32 27.9802C46.0371 28.1779 45.7958 28.4294 45.61 28.7202C45.0787 29.5595 44.381 30.281 43.56 30.8402C42.8942 31.2751 42.3559 31.879 42 32.5902C41.926 32.6981 41.8459 32.8016 41.76 32.9002L42.19 30.3702C39.3 31.7102 36.79 29.8902 36.94 26.9802L36.7 27.3802C36.096 28.5825 35.3025 29.6799 34.35 30.6302C33.9005 31.0892 33.6369 31.6984 33.61 32.3402C33.5617 32.9906 33.3177 33.6112 32.91 34.1202C32.25 34.9402 31.57 35.7602 30.91 36.5702C30.9055 36.5137 30.9055 36.4568 30.91 36.4002C30.83 35.6402 30.73 34.8902 30.68 34.1302C30.605 32.9114 30.8716 31.6958 31.45 30.6202C32.08 29.4202 32.83 28.2902 33.55 27.1402C34.27 25.9902 34.99 24.8402 35.71 23.6902C36 23.2202 36.25 22.6902 36.55 22.2602C36.7035 22.0318 36.8887 21.8264 37.1 21.6502C37.4174 21.358 37.7513 21.0843 38.1 20.8302C38.33 20.6602 38.37 20.5002 38.21 20.2202L34.63 20.3902C34.5561 20.6992 34.4626 21.0032 34.35 21.3002C34.08 21.9202 33.57 21.9702 33.18 21.4102C33.0606 21.2933 32.9655 21.154 32.9 21.0002C32.8 20.6102 32.57 20.6002 32.29 20.7702C31.68 21.1402 31.1 21.5402 30.5 21.9302C30.9996 22.3891 31.329 23.0038 31.4344 23.674C31.5397 24.3441 31.4148 25.0302 31.08 25.6202C30.4553 27.0369 29.4983 28.2821 28.29 29.2502C27.5174 29.8137 26.5863 30.1183 25.63 30.1202C25.3469 30.1353 25.0631 30.1353 24.78 30.1202C24.2845 30.1152 23.8001 29.9733 23.3802 29.7104C22.9602 29.4475 22.621 29.0737 22.4 28.6302C22.32 28.6802 22.26 28.7002 22.21 28.7402C21.1935 29.6992 20.0109 30.465 18.72 31.0002C17.7923 31.4155 16.9326 31.9684 16.17 32.6402C15.827 32.9442 15.4032 33.1422 14.95 33.2102C15 32.7702 15.04 32.3702 15.09 31.9602C15.1929 31.332 15.478 30.7478 15.91 30.2802C17.3471 28.5558 19.0124 27.0352 20.86 25.7602L20.98 25.6602C21.833 25.1753 22.5541 24.4886 23.08 23.6602C23.5906 22.6868 24.3955 21.8994 25.38 21.4102C25.32 21.4102 25.3 21.3402 25.29 21.3502L21.83 21.6402C21.7021 21.6573 21.5792 21.7008 21.469 21.7679C21.3588 21.8351 21.2638 21.9244 21.19 22.0302C20.8728 22.3792 20.5172 22.6911 20.13 22.9602C20.0209 23.0182 19.9008 23.0526 19.7776 23.0611C19.6543 23.0696 19.5306 23.0521 19.4146 23.0096C19.2986 22.9672 19.1928 22.9008 19.1041 22.8147C19.0155 22.7287 18.9459 22.6249 18.9 22.5102C18.8579 22.4114 18.7794 22.3324 18.6808 22.2896C18.5822 22.2468 18.471 22.2435 18.37 22.2802C18.0283 22.3655 17.7083 22.5218 17.4309 22.7389C17.1535 22.956 16.9249 23.229 16.76 23.5402C16.3202 24.2425 15.9229 24.9705 15.57 25.7202C14.8446 27.1961 13.7744 28.4755 12.45 29.4502C11.34 30.2502 10.21 31.0202 9.09 31.8002C8.7 32.0802 8.33 32.3802 7.93 32.6302C7.72931 32.7615 7.48494 32.8082 7.25 32.7602C7.16517 32.6904 7.09823 32.6014 7.05474 32.5005C7.01126 32.3996 6.99249 32.2898 7 32.1802C7.14366 31.5821 7.36912 31.0067 7.67 30.4702C8.62765 29.127 9.80399 27.954 11.15 27.0002C12.9 25.6302 14.68 24.2802 16.44 22.9302L16.56 22.8202L16.44 22.4302L14.73 22.7902C14.641 22.8094 14.549 22.8094 14.46 22.7902C14.01 22.6302 13.62 22.8502 13.2 22.9302C11.7182 23.2 10.1968 23.1625 8.73 22.8202C7.67 22.5802 6.63 22.2402 5.58 21.9702C5.24 21.8802 4.89 21.8302 4.58 21.7702C3.5435 21.5673 2.57616 21.1026 1.77 20.4202C1.3 20.0602 0.77 19.7802 0.28 19.4202C0.183261 19.3847 0.0896117 19.3412 0 19.2902C0.14 19.2902 0.24 19.2202 0.31 19.2402C0.909613 19.3474 1.52773 19.2337 2.05 18.9202C4.30581 17.984 6.77053 17.6664 9.19 18.0002C10.48 18.1202 11.76 18.3702 13.07 18.5702L12.8 18.3102C11.72 17.3102 10.6 16.4202 9.59 15.3802C8.64225 14.564 8.00042 13.4496 7.77 12.2202C7.72883 11.809 7.77308 11.3936 7.9 11.0002C7.93873 10.9083 7.99752 10.8261 8.07206 10.7598C8.1466 10.6935 8.23502 10.6446 8.33086 10.6168C8.42669 10.589 8.52753 10.583 8.626 10.5991C8.72446 10.6153 8.81808 10.6533 8.9 10.7102L11.55 12.7102C12.4593 13.387 13.23 14.2324 13.82 15.2002C13.8647 15.2963 13.94 15.3749 14.034 15.4238C14.1281 15.4726 14.2357 15.489 14.34 15.4702C15.3094 15.4202 16.2806 15.4202 17.25 15.4702C19.1973 15.6245 21.1239 15.9763 23 16.5202C23.0997 16.5309 23.2003 16.5309 23.3 16.5202L22.3 15.3902C21.58 14.5402 20.83 13.7102 20.16 12.8102C19.521 11.928 19.1245 10.8936 19.01 9.81024C18.8994 9.09248 18.7492 8.38139 18.56 7.68023C18.347 6.99325 18.4116 6.25014 18.74 5.61023C18.8875 5.38605 19.0585 5.17821 19.25 4.99023C20.0095 6.16482 20.9207 7.23405 21.96 8.17023C22.3033 8.58771 22.6016 9.04021 22.85 9.52024C23.68 10.9302 24.53 12.3302 25.3 13.7602C25.9002 14.7593 26.2692 15.88 26.38 17.0402C26.38 17.3002 26.54 17.3402 26.72 17.3902C28.2934 17.8091 29.7868 18.4848 31.14 19.3902C31.5798 19.6976 32.1171 19.8328 32.65 19.7702ZM24.88 17.7702L25.47 18.6502L25.6 18.5602L24.89 17.4302V17.7802L24.57 16.8902H24.43L24.75 17.7802L24.88 17.7702ZM45.71 25.1302C45.5787 25.338 45.523 25.5846 45.5521 25.8286C45.5812 26.0727 45.6935 26.2992 45.87 26.4702L45.94 27.2802L45.69 26.7302H45.57L45.75 27.7302L45.5 27.0302H45.4L45.53 27.8902L45.33 27.3002H45.17L45.28 28.1402L45.08 27.6202H44.96L45.09 28.4002L44.87 27.8302C44.53 28.2502 44.96 28.5802 44.87 29.0002L44.56 28.2002C44.15 28.5302 44.56 28.8302 44.56 29.2002L44.31 28.6702H44.2L44.27 29.3802L43.9 29.0002H43.78L43.94 29.8602L43.65 29.2202H43.51L43.69 30.0602L43.42 29.4002H43.27L43.43 30.2502L43.21 30.0002C43.1 30.0002 43 30.0902 42.93 30.0702C42.61 30.0002 42.5 30.1802 42.45 30.4402C42.37 30.8802 42.29 31.3202 42.21 31.8202C42.3927 31.626 42.5863 31.4424 42.79 31.2702C43.8838 30.5283 44.8159 29.5724 45.53 28.4602C45.5759 28.3793 45.637 28.3079 45.71 28.2502L47.9 26.5702C48.18 26.3602 48.57 26.2102 48.35 25.7302L48.5 26.1002H48.64L48.46 24.7502H48.52L48.75 25.9302C48.9459 25.7707 49.0943 25.5605 49.1789 25.3224C49.2636 25.0844 49.2812 24.8276 49.23 24.5802L49.36 25.0102L51.51 21.3802C50.6169 21.9399 49.7525 22.544 48.92 23.1902C48.4091 23.6278 47.9311 24.1024 47.49 24.6102C47.1 25.0302 46.75 25.4802 46.38 25.9102C46.4109 25.7439 46.4719 25.5846 46.56 25.4402C47.06 24.8402 47.56 24.2402 48.12 23.6802C48.68 23.1202 49.12 22.6802 49.64 22.2602C48.2752 22.7189 47.0476 23.5132 46.07 24.5702C45.9873 24.6637 45.9443 24.7856 45.95 24.9102C46.07 25.2502 46.24 25.5702 46.38 25.9102L46.17 26.1002L46 24.8802H45.86L45.71 25.1302ZM50.05 13.7002L48.9 13.4002V13.5102C49.3947 13.7578 49.9143 13.9523 50.45 14.0902L50.51 14.0002L50.26 13.7702C50.47 13.6802 50.47 13.6202 50.26 13.4302C50.51 13.1802 50.26 12.9202 50.2 12.7202C49.5724 11.0567 48.7889 9.45624 47.86 7.94023C47.4861 7.35884 47.0391 6.82784 46.53 6.36023C45.8616 5.88119 45.2856 5.28487 44.83 4.60023C44.57 4.14023 44.27 3.71023 43.99 3.28023C43.6935 4.19445 43.7361 5.18485 44.11 6.07023C44.26 6.45023 44.31 6.91023 44.74 7.07023C44.7666 7.20844 44.8103 7.3428 44.87 7.47023C45.07 8.13023 45.23 8.80023 45.47 9.47023C45.6881 10.0601 45.9523 10.6318 46.26 11.1802C46.48 11.5902 46.83 11.9402 47.04 12.3702C47.0953 12.5023 47.1813 12.6193 47.2908 12.7115C47.4004 12.8037 47.5304 12.8684 47.67 12.9002C47.81 12.9002 47.94 13.0102 48.07 13.0602L47.27 12.9002L50.33 18.1302C50.33 17.9702 50.33 17.9402 50.33 17.9202L48.71 13.7702C48.6 13.4802 48.51 13.1702 48.16 13.0702L48.44 13.1402C48.34 12.9002 48.27 12.7102 48.18 12.5402L46 8.62023C45.76 8.21023 45.54 7.78023 45.31 7.36023L45.42 7.30023C45.5068 7.47888 45.6036 7.65248 45.71 7.82023C45.86 8.05023 46.03 8.27024 46.2 8.50023L46.29 8.69023C46.73 9.69023 47.29 10.5802 48.53 10.6902L48.45 10.7902L47.45 10.4302C47.55 10.6502 47.58 10.8802 47.71 10.9902C47.9075 11.114 48.1236 11.2052 48.35 11.2602C48.55 11.3402 48.75 11.4002 48.96 11.4702L47.96 11.1802V11.2602L48.55 11.5102L48 11.5302V11.6402L48.77 12.0302L48.25 11.8902V12.0102L49.05 12.4202L48.5 12.3002V12.4202L49.74 12.9202L48.74 12.6102L48.69 12.7102C48.82 12.7802 48.93 12.8602 49.06 12.9202L50.34 13.4002L48.75 13.0002V13.1302L50.05 13.7002ZM13.34 28.2802C13.51 28.0802 13.78 27.9002 13.82 27.6802C13.8551 27.2209 13.8551 26.7596 13.82 26.3002C13.8092 26.2215 13.7891 26.1442 13.76 26.0702H13.64V27.8002H13.52V26.3502H13.38C13.2883 26.9959 13.2615 27.6492 13.3 28.3002L13.17 26.6602H13.07V28.5802L13.34 28.2802ZM22.28 12.8002L22.14 12.5602L21.93 12.1302L22.41 12.8002H22.47L21.47 11.0702H21.57L25.38 17.4402H25.44L25.37 15.8602H25.48L25.41 16.5502L25.6 15.8102C25.6205 16.2867 25.5802 16.7639 25.48 17.2302C25.35 17.7702 25.69 18.1002 25.98 18.4802V16.4802L25.84 17.7702C25.8152 17.571 25.8152 17.3695 25.84 17.1702C25.9368 16.7508 25.9605 16.3178 25.91 15.8902C25.6566 15.1104 25.3214 14.3596 24.91 13.6502C24.09 12.1802 23.2 10.7502 22.33 9.30023C22.1563 9.00544 21.9555 8.72756 21.73 8.47023C20.9 7.56024 20.05 6.66023 19.2 5.74023C19.0269 6.01769 18.9104 6.32663 18.8572 6.64928C18.804 6.97192 18.8152 7.30191 18.89 7.62023C19.04 8.42023 19.19 9.22023 19.32 10.0302C19.6003 11.3939 20.2232 12.6638 21.13 13.7202L21.18 13.5202L21.29 13.9502H21.38V13.7402L21.48 14.2302H21.59L21.71 12.6502C21.84 13.3002 21.55 13.9102 21.77 14.5102C21.8129 14.3435 21.8363 14.1724 21.84 14.0002C21.91 13.5802 22 13.1602 22.09 12.7502L21.85 14.5302H22C22 14.4302 22 14.3202 22 14.2202C22.08 13.8102 22.17 13.3902 22.25 12.9702C22.1218 13.6287 22.0715 14.3 22.1 14.9702H22.23L22.35 13.7802C22.6 14.2602 21.95 14.9302 22.64 15.4302L22.75 13.8102H22.6L22.51 14.9402C22.51 14.7402 22.51 14.5402 22.51 14.3402C22.52 13.7002 22.67 13.2002 22.28 12.8002ZM21.63 28.6602L21.76 28.8902L22.17 28.5002L21.7 27.0002H21.61V27.5802L21.44 27.2402H21.34L21.47 27.7702L21.19 27.3602C20.76 27.7802 21.26 28.1702 21.19 28.5702L20.88 27.7302H20.75L21.08 28.9902L20.62 28.0002H20.51L20.74 29.0802L20.44 28.1702H20.31C20.22 28.6602 20.49 29.1102 20.52 29.6002L20.15 28.4102C20.08 28.4802 20.09 28.5702 20.06 28.6002C19.76 28.8402 19.76 28.8302 19.82 29.1102C19.88 29.3902 19.91 29.4802 19.95 29.6602H19.89L19.65 28.7602L19.24 28.9402C19.43 28.7802 19.62 28.6202 19.8 28.4502C19.98 28.2802 20.18 28.1302 20.11 27.8402L20.26 28.0402H20.35L20.29 27.3602L20.44 27.8202H20.53V27.1902L20.66 27.5702H20.71L20.7 27.0002L20.97 27.5302L21.41 26.8102L21.55 26.9002C21.5839 26.8244 21.6042 26.7431 21.61 26.6602C21.5761 26.4814 21.5327 26.3045 21.48 26.1302H21.54L21.75 26.7002H21.87L21.73 26.0302L21.92 26.4702C21.9061 26.0596 22.0103 25.6536 22.22 25.3002C22.088 25.3451 21.9633 25.4091 21.85 25.4902C20.1387 26.6922 18.5268 28.0298 17.03 29.4902C16.03 30.4902 15.03 31.5602 15.21 33.2302C15.6211 32.9871 16.0153 32.7165 16.39 32.4202C16.99 31.8759 17.6632 31.4181 18.39 31.0602C18.47 31.0602 18.5 30.8702 18.55 30.7702C18.6 30.6702 18.78 30.9002 18.85 30.8602C19.52 30.4902 20.19 30.1002 20.85 29.7002C20.93 29.6502 20.95 29.4902 21 29.3802C21.38 29.3802 21.66 29.1002 21.63 28.6602ZM11.08 16.3802L12.48 17.7202L12.56 17.6602L11.94 16.0002H11.82L12.1 17.0002L11.45 15.2502L12.38 16.2502C12.58 16.4702 12.79 16.6802 12.98 16.9102C13.48 17.4902 14.14 17.9102 14.27 18.7902C14.325 19.0188 14.4388 19.2291 14.6 19.4002C14.8157 19.6192 15.0462 19.823 15.29 20.0102C15.2362 19.7343 15.1199 19.4743 14.95 19.2502C14.6026 18.9307 14.3705 18.5053 14.29 18.0402L14.57 18.5502H14.64L14.53 18.0002C14.6589 18.3443 14.8126 18.6785 14.99 19.0002C15.0399 18.9956 15.0901 18.9956 15.14 19.0002C15.23 19.4402 15.58 19.6602 15.93 19.8902L14.93 17.4502L15.14 19.0002C15.09 18.8502 15.04 18.7102 15 18.5602C14.8255 17.6732 14.5364 16.8127 14.14 16.0002C13.3297 14.5478 12.1804 13.3128 10.79 12.4002C10.2473 12.0278 9.72954 11.6202 9.24 11.1802C9.01 10.9802 8.84 10.6202 8.47 10.7502C8.1 10.8802 8.04 11.2502 8 11.6002C7.98948 11.7334 7.98948 11.8671 8 12.0002C8.16743 13.0525 8.65648 14.0271 9.4 14.7902C9.87 15.3402 10.4 15.7902 10.95 16.3102C10.95 16.3102 11.02 16.3102 11.05 16.3602L11.08 16.3802ZM40.7 18.0002L40.5 17.6502L40.36 17.7802L40.7 18.6402C40.5606 18.4402 40.4432 18.2256 40.35 18.0002C40.25 17.5902 39.89 17.5902 39.57 17.3302L39.75 17.9002C39.53 17.6702 39.58 17.2602 39.16 17.2502C39.16 17.4602 39.05 17.6602 39.1 17.8102C39.22 18.1602 39.34 18.6002 39.6 18.8102C39.9805 18.9668 40.3886 19.045 40.8 19.0402L41.1 18.9702C41.16 19.0202 41.23 19.1002 41.29 19.1002C41.92 19.1002 42.56 19.1002 43.2 19.1002V19.0202L40.74 17.7502L40.7 18.0002ZM37.22 17.1302L37 17.0602C37.17 17.4702 37.32 17.8402 37.49 18.1902C37.54 18.3002 37.64 18.4702 37.73 18.1902C37.82 18.2502 37.82 18.5902 38.03 18.3002L38.36 18.6102L38.48 18.5102L37.73 17.3902C37.59 17.1702 37.43 16.9602 37.29 16.7402C37.0096 16.1132 36.5224 15.6013 35.91 15.2902L36.62 15.5102C36.5028 15.2388 36.4091 14.9577 36.34 14.6702C36.2663 14.2737 36.0815 13.9062 35.8071 13.6106C35.5327 13.3149 35.18 13.1033 34.79 13.0002L34.69 12.9502C33.86 12.7002 33.01 12.5002 32.2 12.2102C30.9083 11.7803 29.5608 11.5412 28.2 11.5002C27.89 11.5002 27.58 11.5002 27.26 11.4302L27.17 11.5302C27.68 12.1802 28.17 12.8702 28.7 13.4702C29.0332 13.7853 29.4331 14.0211 29.87 14.1602C30.3316 14.3088 30.7411 14.5864 31.05 14.9602C31.3093 15.3007 31.6043 15.6125 31.93 15.8902C32.42 16.2502 32.98 16.5302 33.61 16.8902L33.7 16.2302C33.76 16.2302 33.84 16.2302 33.87 16.1402C34.13 15.7402 34.39 15.3402 34.65 14.9102L32.05 13.9102V13.8002C32.85 14.0902 33.65 14.3702 34.45 14.6702C34.5336 14.7165 34.6296 14.7356 34.7246 14.7249C34.8196 14.7141 34.9088 14.6741 34.98 14.6102C35.0427 14.5514 35.12 14.5105 35.2039 14.4918C35.2878 14.473 35.3751 14.4771 35.4569 14.5037C35.5386 14.5303 35.6117 14.5783 35.6686 14.6428C35.7254 14.7073 35.7639 14.7858 35.78 14.8702C35.78 15.0202 35.83 15.1802 35.86 15.3302C35.7751 15.5588 35.7436 15.8038 35.7679 16.0464C35.7921 16.2891 35.8715 16.523 36 16.7302L35.71 16.3702C35.64 16.5902 35.58 16.7802 35.51 16.9802C35.3 17.5402 35.31 17.5602 35.87 17.8002L36.37 18.0002C36.37 18.0002 36.46 17.9302 36.51 17.9002L36.91 18.2002L36.98 18.1302L36.8 17.7102L37.23 18.2902L37.33 18.2202L36.47 16.0902L37.22 17.1302ZM32.35 34.2002C32.61 34.0702 32.82 33.9002 32.74 33.5602C32.81 33.5602 32.92 33.5602 32.94 33.4902C33.12 33.0002 33.5 32.4902 33.02 31.9802L33.3 32.2502C33.4589 31.388 33.89 30.5994 34.53 30.0002C34.9978 29.4575 35.4224 28.8791 35.8 28.2702L36 27.8002C36.0533 27.8039 36.1067 27.8039 36.16 27.8002C36.16 27.7302 36.16 27.6202 36.25 27.5702C36.4387 27.4317 36.5683 27.2271 36.6128 26.9972C36.6573 26.7674 36.6134 26.5292 36.49 26.3302C36.4187 26.225 36.3552 26.1147 36.3 26.0002H36.36L36.69 26.8402H36.85L36.73 26.0402L36.93 26.4602H37C37 25.8702 37.49 25.4102 37.36 24.7902L37.51 24.9402C38.0134 24.1243 38.2896 23.1887 38.31 22.2302C38.3076 21.8987 38.3738 21.5703 38.5046 21.2656C38.6354 20.961 38.8279 20.6868 39.07 20.4602C39.1316 20.3808 39.1821 20.2933 39.22 20.2002C39.46 20.0202 39.02 20.0202 39.13 19.8102C39.5125 19.7751 39.8975 19.7751 40.28 19.8102C40.52 19.8102 40.75 19.9002 41.05 19.9502L40.83 19.6902L41.69 19.8102V19.6002L42.49 19.6902C42.7075 19.7382 42.928 19.7716 43.15 19.7902C43.22 19.7902 43.31 19.7302 43.43 19.6802L43.82 19.8702L43.68 19.6002L44.21 19.7702V19.7102L43.91 19.5202L43.97 19.4402L44.59 19.8102L44.64 19.7402L44.41 19.4802L44.79 19.5902V19.4702C44.6316 19.3917 44.4634 19.3346 44.29 19.3002C43.19 19.3002 42.08 19.3002 40.97 19.3002C40.5258 19.2837 40.0839 19.2268 39.65 19.1302C39.3943 19.0066 39.1773 18.8156 39.0222 18.5777C38.8671 18.3398 38.7799 18.064 38.77 17.7802C38.771 17.5418 38.7475 17.3039 38.7 17.0702C38.85 16.9402 38.9 16.8302 38.7 16.7402C38.5795 16.6917 38.4626 16.6349 38.35 16.5702L38.84 16.7302C38.8496 16.6673 38.8496 16.6032 38.84 16.5402C38.68 15.0602 38.53 13.5902 38.36 12.1202C38.1055 10.7584 37.9318 9.38263 37.84 8.00023C37.8589 7.51075 37.7147 7.02884 37.43 6.63023C37.1955 6.33436 37.024 5.99368 36.926 5.62911C36.828 5.26455 36.8055 4.8838 36.86 4.51023C36.9155 4.25157 36.8875 3.98197 36.78 3.74023C36.32 2.84023 35.78 1.97023 35.34 1.11023C34.672 2.12452 34.3237 3.31587 34.34 4.53023C34.4 5.14023 34.34 5.77023 34.4 6.38023C34.58 7.98023 34.26 9.64023 35.09 11.1402C35.19 11.3102 35.28 11.4802 35.37 11.6502L35.79 12.0202C35.7513 12.1201 35.7245 12.2241 35.71 12.3302C35.95 12.4502 36.09 12.8302 36.53 12.6902L36 12.1102H36.3L35.8 9.87023C36.14 11.0202 36.47 12.1802 36.85 13.3202C37.23 14.4602 37.57 15.3202 37.94 16.4002L38.11 16.8502C38.22 17.1602 38.32 17.4702 38.44 17.7702C38.56 18.0702 38.75 18.5002 38.89 18.8702C38.89 18.9502 38.89 19.0602 38.89 19.1702L39.12 19.3002C39.0294 19.4081 38.9002 19.4763 38.76 19.4902C38.13 19.5402 37.5 19.6002 36.87 19.6402C36.24 19.6802 35.74 19.6902 35.18 19.7402C35.0468 19.7775 34.9215 19.8385 34.81 19.9202C34.854 20.0134 34.9041 20.1036 34.96 20.1902C34.96 20.1902 35.05 20.1902 35.14 20.1902L34.92 20.0002C34.98 20.0002 35.02 19.9302 35.07 19.9302C35.5208 19.995 35.9748 20.0351 36.43 20.0502C37.08 20.0502 37.72 19.9802 38.36 19.9502C38.56 19.9502 38.76 19.9502 38.97 19.9502L39.04 20.2402C38.37 20.8302 37.7 21.4202 37.04 22.0202C36.9376 22.1237 36.8561 22.2459 36.8 22.3802C35.7278 24.3911 34.5182 26.3257 33.18 28.1702C32.3827 29.2204 31.7458 30.383 31.29 31.6202C31.2458 31.7935 31.2223 31.9714 31.22 32.1502C31.22 32.2902 31.14 32.4302 31.11 32.5802C30.9817 33.0237 30.9013 33.4796 30.87 33.9402C30.9183 34.5848 31.0052 35.226 31.13 35.8602L31.94 34.8002C32.08 34.6002 32.21 34.4002 32.35 34.2002ZM51 20.2902L50.36 19.9202C50.2 19.8402 50.02 19.7702 49.85 19.7002C50.0156 19.9305 50.2266 20.1245 50.47 20.2702C50.62 20.3602 50.82 20.5602 50.99 20.2702L52.52 20.5202L52.03 20.8002L52.57 20.9602V20.7602L53.02 20.9002L52.84 20.6502L53.73 20.8302L53.65 20.6002C53.84 20.6602 53.96 20.9602 54.17 20.6902L55.17 20.9502L55 20.7702L55.7 21.1302V20.8802L56.4 21.2402V21.1702L56.28 20.9702C56.7262 21.2873 57.2534 21.4711 57.8 21.5002L59.11 21.9202L59.18 21.8302L58.71 21.4302C59.26 21.8002 59.71 22.3402 60.46 22.2702L60.19 21.9002L60.36 21.7502C60.438 21.903 60.5318 22.0471 60.64 22.1802C60.6836 22.2359 60.738 22.2823 60.7998 22.3166C60.8616 22.351 60.9297 22.3726 61 22.3802C61.4458 22.3464 61.8929 22.4255 62.3 22.6102C63.12 22.9602 63.97 23.2502 64.81 23.6102L65.52 23.8802V23.5202H65.61L65.83 24.0602C65.8605 23.9695 65.8806 23.8755 65.89 23.7802C65.82 23.3002 65.47 23.1102 65.07 22.9802C64 22.5902 63 22.2602 61.9 22.0002C61.5105 21.9537 61.1395 21.8078 60.8226 21.5767C60.5056 21.3455 60.2534 21.0369 60.09 20.6802L60.44 21.5702C60.25 21.5702 60.08 21.5702 59.91 21.5702L57.5 21.2102C57.3891 21.1477 57.2718 21.0974 57.15 21.0602C55.93 20.8302 54.72 20.5702 53.51 20.3802C53.0964 20.3423 52.6944 20.2229 52.3272 20.0289C51.9599 19.835 51.6346 19.5704 51.37 19.2502C51.18 19.0002 50.98 18.7602 50.78 18.5202C50.78 18.4602 50.85 18.4002 50.85 18.3402C50.9817 17.4003 50.9377 16.4441 50.72 15.5202L49.61 15.1802V15.2802L50.24 15.6102L49.79 15.4902L49.73 15.5702L50.23 16.2302H50.05V16.3402L50.76 16.7202L50.27 16.5802V16.6702L50.58 16.8602L50.38 16.9302C50.38 17.1402 50.57 17.2202 50.58 17.4502C50.645 17.8186 50.7629 18.1756 50.93 18.5102C50.93 18.5102 50.93 18.5102 50.85 18.5102H50.8C50.99 18.9402 51.45 19.2402 51.34 19.8202C51.34 19.9802 51.55 20.2002 51.69 20.4302L50.76 19.8802V19.9702L51 20.2902ZM14.57 27.0002C14.4975 26.8377 14.4471 26.6662 14.42 26.4902C14.42 26.1902 14.42 25.8802 14.42 25.5802C14.397 25.4648 14.4074 25.3451 14.4499 25.2353C14.4924 25.1256 14.5653 25.0301 14.66 24.9602C15.36 24.3602 16.06 23.7702 16.76 23.1602C16.9836 22.9785 17.191 22.7777 17.38 22.5602C17.46 22.4702 17.44 22.3002 17.47 22.1302C17.1874 22.4849 16.8799 22.8191 16.55 23.1302C14.8 24.5002 13.01 25.8302 11.26 27.2102C9.95328 28.1552 8.80266 29.2991 7.85 30.6002C7.45655 31.1186 7.22363 31.7409 7.18 32.3902C7.18 32.5102 7.25 32.7202 7.34 32.7502C7.41266 32.7685 7.48828 32.7717 7.56223 32.7596C7.63617 32.7476 7.70687 32.7206 7.77 32.6802C8.7 32.0402 9.63 31.3902 10.54 30.6802C10.6577 30.5738 10.7324 30.428 10.75 30.2702C10.7652 29.9704 10.7652 29.67 10.75 29.3702H10.82L10.76 30.3702L10.88 30.4402L12.88 28.7302C12.9048 28.7072 12.9247 28.6794 12.9385 28.6484C12.9522 28.6175 12.9595 28.5841 12.96 28.5502V26.8202C12.8408 26.8573 12.7393 26.9368 12.6748 27.0437C12.6103 27.1506 12.5872 27.2775 12.61 27.4002C12.61 27.7902 12.61 28.1902 12.61 28.5802L12.49 27.2802H12.34C12.2914 27.4435 12.2579 27.6108 12.24 27.7802C12.2299 27.9768 12.2299 28.1737 12.24 28.3702V28.9102L12.11 27.6702H12C12 27.8702 12 28.0702 12 28.2602C12 28.4502 12 28.6502 12 28.8402H11.9L11.82 27.9602H11.71V29.1602H11.62L11.56 28.3102H11.44L11.37 29.6602H11.31V28.4002L8.25 31.4502L8.15 31.3502L14.09 25.2502L14.24 25.3102V27.2002H14.34L14.57 26.9302C14.7704 26.3847 14.7704 25.7857 14.57 25.2402C14.4451 25.8203 14.4451 26.4202 14.57 27.0002ZM17.57 19.4502L17.06 18.5302C16.77 18.0002 16.66 17.3202 15.99 17.2902C19.1446 18.027 22.3356 18.5978 25.55 19.0002C25.424 18.8342 25.276 18.6862 25.11 18.5602C24.75 18.2302 24.25 17.9702 24.11 17.5602C23.8 16.8202 23.22 16.7602 22.58 16.6402L22.67 17.1102C22.55 16.8002 22.43 16.5602 22.04 16.5002C21.25 16.3702 20.46 16.2002 19.67 16.0602C18.0623 15.7552 16.4251 15.6344 14.79 15.7002H14.3C14.2974 15.7435 14.2974 15.7869 14.3 15.8302C14.9313 16.7868 15.4895 17.7897 15.97 18.8302C16.0316 18.9624 16.1378 19.0686 16.27 19.1302C16.71 19.3202 17.15 19.4902 17.6 19.6602C17.6 19.6602 17.66 19.6602 17.69 19.6002C17.8154 19.7424 17.9692 19.8567 18.1414 19.9359C18.3136 20.0151 18.5005 20.0575 18.69 20.0602C18.652 19.7144 18.7049 19.3646 18.8434 19.0454C18.982 18.7262 19.2014 18.4487 19.48 18.2402L16.68 17.5702L17.57 19.4502ZM29.64 21.7202C28.6388 21.1685 27.4609 21.032 26.36 21.3402C25.1175 21.8145 24.064 22.6819 23.36 23.8102C22.5756 24.9017 22.2197 26.2435 22.36 27.5802C22.3601 27.9269 22.446 28.2681 22.61 28.5734C22.774 28.8788 23.0111 29.1388 23.3 29.3302C23.9889 29.6831 24.7466 29.881 25.52 29.9102C26.1425 29.9101 26.7583 29.7822 27.3293 29.5345C27.9004 29.2868 28.4145 28.9246 28.84 28.4702C29.8235 27.5001 30.5637 26.311 31 25.0002C31.19 24.5068 31.2239 23.9668 31.0969 23.4534C30.9699 22.9401 30.6882 22.4782 30.29 22.1302L29.8 22.5002L30.58 22.8202V22.9202C29.22 22.8302 29.23 22.9702 28.89 21.6502L29.36 22.0502L29.64 21.7202ZM43.48 23.2502L43.68 23.6502L43.59 23.7102L43.04 23.3102L43.18 23.7302L42.52 22.4802L43.02 22.6302L43.68 22.0002C43.2352 21.7728 42.7406 21.6601 42.2411 21.6724C41.7417 21.6846 41.2532 21.8213 40.82 22.0702C40.1361 22.4873 39.4991 22.9768 38.92 23.5302C38.3493 24.0457 37.9013 24.6824 37.6089 25.3936C37.3164 26.1048 37.187 26.8725 37.23 27.6402C37.2308 28.112 37.345 28.5766 37.5631 28.9949C37.7812 29.4132 38.0968 29.7728 38.4832 30.0435C38.8696 30.3142 39.3154 30.4879 39.783 30.55C40.2507 30.612 40.7264 30.5607 41.17 30.4002C42.2149 30.0599 43.1436 29.4335 43.8506 28.5922C44.5576 27.7508 45.0147 26.7282 45.17 25.6402C45.2963 25.0032 45.1861 24.3419 44.86 23.7802L44.94 24.3702C44.63 23.7002 44.64 23.0002 44.14 22.3702L43.75 23.0602L43.84 23.1202L43.48 23.2502ZM16 20.8802L13.9 19.3202C13.6196 19.0695 13.272 18.9061 12.9 18.8502C10.5792 18.3687 8.20854 18.1706 5.84 18.2602C4.19837 18.483 2.59812 18.9446 1.09 19.6302C1.58 19.9802 2.01 20.3102 2.47 20.6302C2.91186 20.9157 3.3808 21.1568 3.87 21.3502C4.33632 21.4762 4.81078 21.5697 5.29 21.6302V21.4102L5.64 21.7402L5.71 21.6602L5.47 21.1502C5.77 21.3402 5.74 21.8002 6.28 21.7902C6.74206 21.8754 7.1855 22.0412 7.59 22.2802L6.81 20.5502H6.89L7.79 22.3702L7.9 22.3202L7.11 20.4802H7.2C7.43 21.0002 7.68 21.4802 7.87 22.0602C7.91719 22.2369 8.02811 22.3898 8.18137 22.4895C8.33463 22.5892 8.51938 22.6287 8.7 22.6002C8.7 22.6002 8.77 22.6002 8.79 22.6002C9.70261 22.8945 10.6642 23.0067 11.62 22.9302C11.71 22.9302 11.81 22.8402 11.91 22.7802C12.14 23.1002 12.51 22.8902 12.84 22.8802C12.9 22.8802 12.96 22.7802 12.99 22.7502H13.64L13.12 21.7002H13.18L13.47 22.2202H13.58L13.44 21.6102L13.76 21.9802C13.76 21.6402 13.76 21.3802 13.38 21.3602C13.0119 21.3589 12.6444 21.3322 12.28 21.2802L7.73 20.5402C6.64 20.3602 5.54 20.2002 4.45 20.0402C8.29 20.1602 12.08 20.8302 16 20.8802ZM44 32.5202C44.69 32.5202 45.32 32.4002 45.94 32.4102C46.7382 32.4703 47.5394 32.3424 48.2793 32.0367C49.0191 31.7311 49.6769 31.2562 50.2 30.6502C50.7985 29.8636 51.6058 29.2607 52.53 28.9102C53.3042 28.6103 53.9916 28.1223 54.53 27.4902L56.39 25.4902L56.99 24.8702L56.07 24.7502C55.43 24.6502 55.43 24.6502 55.29 24.7502L56.62 25.0002C56.5659 25.0283 56.5059 25.0429 56.445 25.0429C56.3841 25.0429 56.3241 25.0283 56.27 25.0002C55.8467 24.8584 55.3911 24.8435 54.9594 24.9572C54.5276 25.0709 54.1386 25.3083 53.84 25.6402C52.01 27.0802 50.12 28.4602 48.25 29.8602C48.08 29.9902 47.9 30.1102 47.71 30.2402L48.61 30.7102C48.415 30.6945 48.2266 30.6328 48.06 30.5302C47.9181 30.4166 47.7418 30.3547 47.56 30.3547C47.3782 30.3547 47.2019 30.4166 47.06 30.5302C46.26 31.0502 45.44 31.5302 44.62 32.0302L44.53 31.9502L45.09 31.5002L45.02 31.4402L44 32.5202ZM60.29 19.6802L61 16.7802H60.89L60.72 16.8902C60.8339 16.752 60.9034 16.5826 60.9195 16.4041C60.9355 16.2257 60.8974 16.0466 60.81 15.8902C60.7047 15.5805 60.4906 15.3195 60.2073 15.1558C59.924 14.9921 59.591 14.9368 59.27 15.0002C57.63 15.2402 57.12 15.3702 57.81 17.2002C58.0118 17.7883 58.1721 18.3898 58.29 19.0002C58.3478 19.4319 58.5403 19.8343 58.84 20.1502C59.0494 20.3445 59.2311 20.5666 59.38 20.8102C59.4386 20.9347 59.5441 21.0309 59.6734 21.0777C59.8027 21.1246 59.9453 21.1183 60.07 21.0602C59.9974 20.9793 59.9368 20.8884 59.89 20.7902C59.8091 20.6014 59.752 20.4032 59.72 20.2002C59.7267 19.977 59.7603 19.7554 59.82 19.5402L59.5 19.8902C59.5 19.5502 59.5 19.1802 59.57 18.8302C59.6852 18.4795 59.6852 18.101 59.57 17.7502L58.89 16.3602C59.25 16.4202 59.19 17.1002 59.68 17.0102C59.6381 17.1155 59.6145 17.2271 59.61 17.3402C59.79 18.0602 60 18.8202 60.29 19.6802ZM45.64 24.6802C46.5689 23.4837 47.8018 22.5583 49.21 22.0002C50.1 21.6002 50.98 21.1802 51.9 20.7502C51.84 20.7002 51.8 20.6402 51.76 20.6402C50.81 20.5202 49.86 20.4102 48.9 20.3102C48.8581 20.3125 48.8173 20.3246 48.7808 20.3454C48.7444 20.3662 48.7133 20.3953 48.69 20.4302C48.4219 20.8746 47.9916 21.1973 47.49 21.3302C47.1878 21.4092 46.8983 21.5304 46.63 21.6902C46.5226 21.819 46.3902 21.9247 46.2407 22.0008C46.0913 22.077 45.928 22.122 45.7607 22.1332C45.5933 22.1445 45.4255 22.1216 45.2672 22.0661C45.109 22.0106 44.9636 21.9235 44.84 21.8102L44.57 22.0802L45.64 24.6802ZM38.44 23.5702C41.05 21.2602 41.99 20.9602 43.86 21.8302C44.77 21.5102 44.36 20.7502 44.48 20.1102H40.35C39.9418 20.113 39.5481 20.2617 39.2399 20.5295C38.9318 20.7973 38.7297 21.1664 38.67 21.5702C38.56 22.2102 38.51 22.8902 38.44 23.5402V23.5702ZM32.79 20.4002C32.99 20.7302 33.15 21.0502 33.36 21.3302C33.57 21.6102 33.97 21.6502 34.13 21.2102C34.3963 20.5556 34.6299 19.8881 34.83 19.2102C35.13 18.0602 35.37 16.9002 35.62 15.7502C35.6648 15.5191 35.6648 15.2814 35.62 15.0502C35.62 14.7202 35.33 14.6602 35.09 14.8802C35.0216 14.9419 34.9581 15.0088 34.9 15.0802C33.8532 16.5313 33.1675 18.2111 32.9 19.9802L34.25 18.9202C34.19 19.0002 34.17 19.0002 32.79 20.3702V20.4002ZM47.19 21.1702C47.3183 21.1702 47.4461 21.1534 47.57 21.1202C47.7835 21.093 47.9846 21.0047 48.1493 20.8661C48.314 20.7275 48.4353 20.5444 48.4986 20.3386C48.5619 20.1329 48.5645 19.9133 48.5063 19.7061C48.448 19.4989 48.3312 19.3128 48.17 19.1702C47.89 18.7902 47.62 18.4002 47.35 18.0102C47.08 17.6202 46.93 17.6002 46.69 17.8002C46.25 18.1602 45.87 18.5902 45.45 19.0002L45.94 19.2502L45.83 19.3602L45.94 19.1502L46.17 19.7002V19.2602L46.39 19.7902H46.46L46.34 19.2902H46.43L47 20.0002L47.08 19.9502L46.92 19.4102L46.99 19.3602L47.58 20.1302L47.48 20.2602L45 19.8902C44.8605 20.0877 44.7857 20.3235 44.7857 20.5652C44.7857 20.807 44.8605 21.0428 45 21.2402L44.95 20.7602C45.0285 20.9134 45.0793 21.0793 45.1 21.2502L45.16 21.7202H45.25L45.2 21.0902H45.26L45.43 21.8202H45.51L45.44 21.2202H45.5L45.67 22.0002C45.94 21.7202 46.62 21.9402 46.44 21.2502L46.57 21.5002L47.19 21.1702ZM24.35 19.1702L20.51 18.3902C20.72 18.8502 20.93 19.3102 21.15 19.7602C21.2687 20.1607 21.4696 20.5319 21.74 20.8502C21.93 21.0002 22.4 20.8502 22.74 20.7602H22.82L24.17 20.5902L24.05 20.3402C24.49 20.8202 24.94 20.4002 25.37 20.5202L25.47 20.3602L24.64 19.6902L24.73 19.6002C24.9679 19.8748 25.2217 20.1353 25.49 20.3802C25.81 20.6402 26.17 20.4802 26.57 20.3202C26.42 20.1202 26.19 20.0102 26.05 19.8302C25.9683 19.7187 25.8614 19.6279 25.738 19.5654C25.6147 19.5028 25.4783 19.4702 25.34 19.4702C24.7 19.4702 24.07 19.3102 23.43 19.2202V19.1102L24.35 19.1702ZM45.5 31.2402C47.134 30.4299 48.6791 29.4513 50.11 28.3202C52.18 26.7702 54.28 25.2602 56.38 23.7502C56.7637 23.4733 57.1802 23.2449 57.62 23.0702C58.09 22.8702 58.62 22.7702 59.1 22.6102C59.2658 22.5424 59.4263 22.4622 59.58 22.3702L59.45 22.3202C58.378 22.4935 57.3453 22.8558 56.4 23.3902C56.3041 23.4372 56.2035 23.4741 56.1 23.5002C54.7393 23.9723 53.4878 24.7137 52.42 25.6802C50.743 27.3441 48.9001 28.8319 46.92 30.1202C46.42 30.4602 46 30.8602 45.5 31.2402ZM18.9 21.1202C18.8574 21.3751 18.8692 21.636 18.9347 21.8859C19.0002 22.1358 19.1179 22.3691 19.28 22.5702C19.3139 22.6323 19.3604 22.6866 19.4164 22.7297C19.4724 22.7728 19.5368 22.8039 19.6054 22.8208C19.6741 22.8377 19.7455 22.8402 19.8151 22.828C19.8848 22.8159 19.9511 22.7894 20.01 22.7502C20.5824 22.3763 21.0586 21.8727 21.4 21.2802L20 20.6302L20.16 20.5202L19.34 20.3602C19.7035 20.2818 20.0796 20.2813 20.4433 20.3589C20.807 20.4365 21.1501 20.5903 21.45 20.8102C21.31 20.4902 21.21 20.2402 21.09 19.9902C20.9021 19.5693 20.6918 19.1587 20.46 18.7602C20.4045 18.6416 20.3149 18.5422 20.2027 18.4747C20.0905 18.4071 19.9607 18.3745 19.8299 18.3809C19.6991 18.3874 19.5731 18.4326 19.4681 18.5108C19.363 18.589 19.2836 18.6967 19.24 18.8202C19.24 18.9202 19.29 19.0902 19.24 19.2302C19.24 20.1802 19.16 21.1302 19.12 22.1302L18.9 21.1202ZM32.5 19.8902C31.22 20.0102 30 20.1102 28.79 20.2602C28.4096 20.3438 28.0138 20.3249 27.6431 20.2054C27.2724 20.086 26.94 19.8702 26.68 19.5802C26.39 19.2602 26.48 18.9202 26.37 18.5802L26.28 18.3902L26.12 18.7202L25.72 18.2002L25.63 18.2702C26.01 18.8002 26.4 19.3302 26.77 19.8602C26.8732 19.9853 26.936 20.1387 26.95 20.3002C26.95 20.3902 26.74 20.5102 26.61 20.5302C26.06 20.6102 25.51 20.6602 24.97 20.7202L23.97 20.8202V21.0002C24.1746 21.0044 24.3785 21.0244 24.58 21.0602C24.83 21.1402 25.18 20.7902 25.35 21.2302C25.3785 21.2423 25.4091 21.2486 25.44 21.2486C25.4709 21.2486 25.5015 21.2423 25.53 21.2302C25.53 21.1802 25.53 21.0902 25.53 21.0102L25.95 21.2402L25.81 20.9702L26.19 21.0902L26.11 20.9402L27.85 20.7802V20.6802L28.91 20.9102V20.5502C29.28 20.7802 29.61 21.0202 30 20.7102L29.82 20.3102L30.35 20.5702L30.2 20.2302L30.77 20.5402C30.77 20.4602 30.77 20.4102 30.77 20.4302H31.62L29.3 22.2802L29.36 22.3702L32.06 20.5802V20.5202C32.2238 20.496 32.3825 20.4453 32.53 20.3702C32.55 20.3202 32.5 20.1302 32.5 19.8902ZM39.14 15.2902C39.14 15.8602 39.14 16.3802 39.14 16.9002C39.1527 16.9544 39.1785 17.0045 39.2151 17.0464C39.2517 17.0882 39.298 17.1204 39.35 17.1402C39.6884 17.2102 40.0224 17.3003 40.35 17.4102C41.26 17.8102 42.16 18.2602 43.06 18.6902L43.54 18.9102C42.13 17.6702 41 16.1302 39.14 15.2902ZM38.53 18.8902L35.35 17.8902L35 19.5502L38.47 19.2702L38.53 18.8902ZM26.71 19.2002L29.11 19.4902C29.03 19.1502 29.4 18.8602 29.03 18.5502L28.96 19.0702V18.4502L26.74 17.6702C26.6669 17.6621 26.5931 17.6621 26.52 17.6702L26.71 19.2002ZM37.92 17.2002C37.9282 17.1439 37.9282 17.0866 37.92 17.0302C37.53 15.8502 37.15 14.6502 36.72 13.4802C36.63 13.2402 36.35 13.0802 36.16 12.8802L36.09 12.9602C36.59 14.3702 36.84 15.9302 37.92 17.1802V17.2002ZM49.07 13.7802L49.01 13.8802C49.32 14.3602 50.01 14.2602 50.4 14.6702L49.25 14.2302V14.3302C49.3159 14.4047 49.3896 14.4717 49.47 14.5302C49.5869 14.5962 49.7071 14.6563 49.83 14.7102H49.43C49.5819 14.924 49.7829 15.0982 50.016 15.2183C50.2492 15.3383 50.5077 15.4007 50.77 15.4002C50.7 15.0602 50.64 14.7302 50.55 14.4002C50.5398 14.3596 50.52 14.3219 50.4921 14.2906C50.4642 14.2592 50.4292 14.2351 50.39 14.2202C49.92 14.0002 49.5 13.8802 49.07 13.7602V13.7802ZM16 22.2002C15.74 21.6302 14.35 21.6102 13.91 22.0602L14.3 22.4902H14.6L14.47 22.2102L15.03 22.4002V22.2002H16ZM16.81 20.2002H16.87L17.24 20.8902C17.14 20.1302 16.9 19.8902 16.08 19.8102C16.1335 20.0826 16.2526 20.3378 16.4268 20.5538C16.601 20.7698 16.8252 20.9402 17.08 21.0502L16.81 20.2002ZM29.87 19.2002C30.06 19.7702 30.33 19.8702 31.25 19.7302L29.76 18.8502V19.6202H29.87V19.2002ZM56.75 24.0002L57.32 23.5002V23.4302L55.96 24.3102L57.34 24.5702V24.4502L56.44 24.2402V24.1902L57.58 24.3302V24.2002L56.75 24.0002ZM18.75 20.3202L16 19.3202C16.8051 19.8853 17.7488 20.2206 18.73 20.2902L18.75 20.3202ZM21.64 21.4902C21.8957 21.3918 22.1602 21.3181 22.43 21.2702C22.7442 21.2584 23.0588 21.2752 23.37 21.3202L23.23 21.0802H23.5V20.9502C22.8737 20.9304 22.2477 20.9977 21.64 21.1502V21.4902ZM50.27 20.3102C50.1122 20.0728 49.8817 19.8929 49.6132 19.7974C49.3446 19.7019 49.0523 19.6958 48.78 19.7802V20.1302L50.27 20.3102ZM23.27 14.7102C23.05 15.5002 23.16 16.0602 23.64 16.4002C23.58 15.7802 23.75 15.1802 23.28 14.6802L23.27 14.7102ZM18.4 21.8302L18.65 21.4902L18.57 21.3902L16.87 21.7802V21.8502L18.13 21.9602L17.92 21.8002L18.49 22.0702V22.0002L18.4 21.8302ZM23.12 14.3502H23.07V14.9302L23 13.9302H22.82C22.99 14.4302 22.65 14.9302 22.95 15.4602C22.9453 15.397 22.9453 15.3335 22.95 15.2702L23 15.6702H23.12V14.3502ZM29 21.0802L29.89 21.5502L30.5 21.0002H30.45L29 21.0802ZM43.39 22.5402L43.62 22.8902C43.62 22.7502 43.62 22.6102 43.62 22.5702C43.9397 22.3057 44.2735 22.0587 44.62 21.8302C44.84 21.6802 44.79 21.5702 44.62 21.4302L43.39 22.5402ZM16.13 24.0002C15.68 24.3402 15.13 24.6402 15.47 25.4002L16.13 24.0002ZM29.13 19.8902L27.73 19.7102C28 20.0902 28.26 20.1302 29.13 19.8502V19.8902ZM24.3 16.9302L24.11 16.0502C24.0153 16.2902 23.9992 16.5541 24.0639 16.8038C24.1285 17.0536 24.2707 17.2764 24.47 17.4402L24.39 16.6602H24.34L24.3 16.9302ZM57.13 24.7802V24.6202C56.63 24.6202 56.13 24.3302 55.66 24.4502V24.5802L57.13 24.7802ZM24.24 15.6702L24.14 15.7302L25.36 17.7902L25.45 17.7402L24.24 15.6702ZM15.81 21.2702C15.81 21.6302 16.04 21.7502 16.32 21.6102C16.42 21.6102 16.47 21.4002 16.52 21.2802C16.57 21.1602 16.36 21.1302 16.34 21.1402C16.2047 21.2403 16.0745 21.3471 15.95 21.4602L15.81 21.2702ZM58.48 23.0002L57.58 23.5102C58.2 23.7602 58.28 23.2602 58.48 23.0002ZM14 27.5702H14.16L14 25.9002V27.5702ZM15 25.0202H14.94V26.2602H15V25.0202ZM26.12 19.4402L26.9 20.2302L26.12 19.4402ZM14.25 21.2302L14.19 21.3302L14.52 21.5902L14.64 21.3702L14.83 21.5102L14.9 21.3702C14.74 21.1802 14.49 21.2202 14.25 21.2302ZM15.13 21.2302L15.03 21.4002L15.72 21.6902L15.79 21.5202L15.13 21.2302ZM23.83 15.6102H23.69L23.82 16.7002H23.93L23.83 15.6102ZM29.47 18.7202C29.09 19.3602 29.09 19.5202 29.4 19.5102L29.47 18.7202Z"
      fill="#E7E4D8" />
    <path
      d="M46.17 8.50047C45.77 7.75047 45.37 7.00047 44.98 6.24047C44.849 6.00452 44.761 5.74719 44.72 5.48047L46.54 8.90047L46.26 8.69047L46.17 8.50047Z"
      fill="#E7E4D8" />
    <path
      d="M10.72 14.8704C10.82 15.2404 10.91 15.6004 11 15.9704C11.0372 16.1048 11.064 16.2418 11.08 16.3804L10.43 14.3804L10.72 14.8704Z"
      fill="#E7E4D8" />
    <path d="M29.33 24.54L29.89 26.45L29.64 26.15L29.7 26.66C29.26 26 29 24.77 29.33 24.54Z" fill="#E7E4D8" />
    <path d="M28.43 22.2904L28.79 24.0004H28.7L28.15 21.8804H28.24L28.44 22.3504L28.43 22.2904Z" fill="#E7E4D8" />
    <path d="M25.8 27.3101L26.31 29.3901H26.22L25.69 27.3101H25.8Z" fill="#E7E4D8" />
    <path d="M30.17 25.8101L29.51 23.8101H29.62L30.27 25.8701L30.17 25.8101Z" fill="#E7E4D8" />
    <path d="M26.54 29.1802L26.01 27.1802H26.11L26.62 29.1802H26.54Z" fill="#E7E4D8" />
    <path
      d="M28.44 22.3V22.04H28.5L29 23.71H28.89C28.8 23.39 28.71 23.07 28.6 22.71C28.49 22.35 28.47 22.38 28.41 22.22L28.44 22.3Z"
      fill="#E7E4D8" />
    <path d="M27.55 29.0004L27.09 27.1104H27.19L27.65 29.0004H27.55Z" fill="#E7E4D8" />
    <path d="M29.82 23.3901L30.43 25.2401H30.34L29.73 23.4001L29.82 23.3901Z" fill="#E7E4D8" />
    <path d="M29.3 27.0002L28.83 25.1602H28.92L29.4 27.0002H29.3Z" fill="#E7E4D8" />
    <path d="M26.86 29.0901L26.31 27.3501H26.41L27 29.0501L26.86 29.0901Z" fill="#E7E4D8" />
    <path d="M27.92 26.0703L28.45 27.9703H28.36L27.84 26.0703H27.92Z" fill="#E7E4D8" />
    <path d="M27.39 26.6704L27.89 28.3604H27.8L27.29 26.6804L27.39 26.6704Z" fill="#E7E4D8" />
    <path d="M28.62 27.66L28.1 26H28.2L28.7 27.69L28.62 27.66Z" fill="#E7E4D8" />
    <path d="M27.73 26.4805L28.21 28.2505H28.14L27.64 26.4805H27.73Z" fill="#E7E4D8" />
    <path d="M29.43 24.1802L30 25.7602H29.93L29.37 24.1902L29.43 24.1802Z" fill="#E7E4D8" />
    <path d="M28.61 25.3101L29.08 26.6601H29.02L28.53 25.3201L28.61 25.3101Z" fill="#E7E4D8" />
    <path d="M28.83 27.35L28.44 26H28.52L28.9 27.34L28.83 27.35Z" fill="#E7E4D8" />
    <path d="M26.81 27.2305L27.19 28.5905H27.13L26.72 27.2405L26.81 27.2305Z" fill="#E7E4D8" />
    <path
      d="M43.88 25.0004L44.37 27.0004H44.28L43.47 24.0004L43.55 23.9204C43.64 23.9704 43.78 24.0104 43.8 24.0704C44.05 24.9104 44.27 25.7604 44.46 26.6104L44 25.0004H43.88Z"
      fill="#E7E4D8" />
    <path d="M44 23.3501L44.79 26.2301H44.71L43.91 23.3501H44Z" fill="#E7E4D8" />
    <path d="M43.6 25L44.15 27.47H44.07L43.48 25H43.6Z" fill="#E7E4D8" />
    <path d="M43.55 28.0003L43 26.0503H43.1L43.63 28.0003H43.55Z" fill="#E7E4D8" />
    <path d="M44.21 23L44.77 24.77H44.69L44.13 23H44.21Z" fill="#E7E4D8" />
    <path d="M41.32 23L41.91 24.63H41.83L41.24 23H41.32Z" fill="#E7E4D8" />
    <path d="M42 27.7002L42.56 29.2402H42.48L41.93 27.7102L42 27.7002Z" fill="#E7E4D8" />
    <path d="M43.2 27.9103L42.8 26.3403H42.87L43.27 27.9103H43.2Z" fill="#E7E4D8" />
    <path d="M40.73 28.4102L41.26 29.8702H41.2L40.65 28.4202L40.73 28.4102Z" fill="#E7E4D8" />
    <path d="M42.13 23L42.61 24.29H42.53L42 23H42.13Z" fill="#E7E4D8" />
    <path d="M40 28.7305L40.52 30.0505H40.45L39.91 28.7405L40 28.7305Z" fill="#E7E4D8" />
    <path d="M43.73 27.2604L43.38 25.8604H43.45L43.79 27.2504L43.73 27.2604Z" fill="#E7E4D8" />
    <path d="M37.28 8.38027L35.83 7.62027L35.88 7.53027L37.32 8.31027L37.28 8.38027Z" fill="#E7E4D8" />
    <path d="M20 7.76025L20.6 9.37025H20.51L19.9 7.80025L20 7.76025Z" fill="#E7E4D8" />
    <path d="M23.33 13.42V12H23.43L23.36 13.43L23.33 13.42Z" fill="#E7E4D8" />
    <path d="M33.39 16.5302L32.62 14.7002H32.69L33.46 16.5102L33.39 16.5302Z" fill="#E7E4D8" />
    <path d="M33.71 16.2002L33.15 14.9102C33.4618 15.2743 33.657 15.7237 33.71 16.2002Z" fill="#E7E4D8" />
    <path d="M53.2 28.4302L51.61 27.8102V27.7402L53.21 28.3402L53.2 28.4302Z" fill="#E7E4D8" />
    <path d="M51.42 27.9302L52.82 28.4602V28.5502L51.39 28.0002L51.42 27.9302Z" fill="#E7E4D8" />
    <path d="M52 27.5303L53.31 28.0403V28.1203L52 27.6303V27.5303Z" fill="#E7E4D8" />
    <path d="M48.3 31.6504L47.11 31.0004V30.9204L48.31 31.5604L48.3 31.6504Z" fill="#E7E4D8" />
    <path d="M55.05 25.0703L56.05 25.2103V25.3303L55.05 25.1803V25.0703Z" fill="#E7E4D8" />
    <path
      d="M13.51 15.7305L14 17.5805C13.9553 17.3631 13.8951 17.1493 13.82 16.9405C13.73 16.7305 13.82 16.4505 13.54 16.2705C13.44 16.2205 13.54 15.9305 13.47 15.7405L13.51 15.7305Z"
      fill="#E7E4D8" />
    <path
      d="M10.92 14.6405C10.9003 14.7429 10.9003 14.8481 10.92 14.9505C11.1021 15.4184 11.259 15.8958 11.39 16.3805L10.72 14.8805V14.4805L10.92 14.6405Z"
      fill="#E7E4D8" />
    <path d="M12.34 16.2802L11.88 14.4102H12.02C12.13 15.0402 12.23 15.6702 12.34 16.3002V16.2802Z" fill="#E7E4D8" />
    <path d="M14.25 18.07L13.79 16.25H13.91C14.02 16.87 14.14 17.49 14.25 18.11V18.07Z" fill="#E7E4D8" />
    <path d="M9.89997 13.4805L10.47 15.1505H10.41L9.84998 13.5005L9.89997 13.4805Z" fill="#E7E4D8" />
    <path d="M12.24 14.5L12.62 16H12.55L12.15 14.52L12.24 14.5Z" fill="#E7E4D8" />
    <path d="M12.84 14.8901L13.17 16.3801H13.1L12.77 14.8901H12.84Z" fill="#E7E4D8" />
    <path
      d="M35.49 26.5102L35.35 26.4302C35.3149 26.5193 35.2979 26.6145 35.3 26.7102C35.46 27.2302 35.64 27.7102 35.82 28.2602C35.67 27.9302 35.52 27.6002 35.38 27.2602C35.32 27.1102 35.27 26.9502 35.2 26.7202C34.94 27.1702 34.71 27.5502 34.5 27.9402C33.8 29.2102 33.1 30.4802 32.42 31.7602C32.3243 32.0058 32.254 32.2604 32.21 32.5202C31.9 32.6302 31.92 32.9202 31.86 33.1702L31.55 34.2902H31.47C31.47 33.9702 31.55 33.6602 31.58 33.3402C31.58 33.1802 31.58 33.0102 31.58 32.8502C31.58 32.6902 31.71 32.7602 31.74 32.7002C32.32 31.6002 32.87 30.4802 33.46 29.3702C34.65 27.2502 35.79 25.1102 37 23.0002C37.3802 22.3933 37.7907 21.8059 38.23 21.2402L38.35 21.3202C38.31 21.4186 38.2597 21.5124 38.2 21.6002C37.35 22.6775 36.6378 23.8566 36.08 25.1102C35.93 25.3902 35.75 25.6502 35.62 25.9402C35.5561 26.125 35.5125 26.3161 35.49 26.5102Z"
      fill="#E7E4D8" />
    <path
      d="M45.7 25.0801C45.79 25.3101 45.87 25.5501 45.98 25.7701C46.0346 25.8654 46.1019 25.9529 46.18 26.0301V26.4201H45.91C45.91 26.1501 45.91 25.8801 45.91 25.6201C45.8504 25.4362 45.7802 25.2559 45.7 25.0801Z"
      fill="#E7E4D8" />
    <path d="M34.44 18.8703L35.37 15.5303H35.49L34.6 18.8803L34.44 18.8703Z" fill="#E7E4D8" />
    <path
      d="M52.53 20.5301C52.26 20.4101 51.99 20.3101 51.73 20.1701C51.5922 20.0847 51.4839 19.959 51.42 19.8101L51.64 19.9301C51.78 20.0001 51.87 20.2601 52.09 20.0601L52.52 20.5301H52.53Z"
      fill="#000" />
  </g>
  <defs>
    <clipPath id="clip0_1_38">
      <rect width="66.11" height="36.57" fill="black" />
    </clipPath>
  </defs>
</svg>